<ttFont>
          <CharString index="0">
            rmoveto
            -68 48 -50 64 vhcurveto
            96 88 11 83 hhcurveto
            222 149 -17 -11 30 hvcurveto
            -15 31 45 -11 28 hhcurveto
            76 62 24 73 48 -18 65 -72 hvcurveto
            -35 -205 2 74 hhcurveto
            58 -358 9 8 -137 hvcurveto
            -63 8 -93 -5 12 18 rrcurveto
            160 vlineto
            -3 78 0 91 14 27 -7 16 19 vvcurveto
            5 9 3 77 vhcurveto
            431 hlineto
            53 26 62 19 71 -43 29 -55 hvcurveto
            -55 -47 -13 -49 -149 -98 4 -99 hhcurveto
            -6 -3 4 9 hvcurveto
            325 vlineto
            -1 45 -3 772 -4 vhcurveto
            44 45 46 39 91 -36 4 -117 -96 -132 -2 -3 -127 hvcurveto
            -4 -117 -111 -2 -80 -63 -48 47 -59 hhcurveto
            -114 13 -157 -71 -117 7 -111 7 -113 hvcurveto
            -5 -24 -11 -24 -23 vvcurveto
            -25 3 -26 13 -21 vhcurveto
            endchar
          </CharString>
          <CharString index="1">
            rmoveto
            44 45 39 82 90 -61 48 -19 -53 -100 -52 -61 -109 52 -37 92 hvcurveto
            479 hmoveto
            60 59 58 59 57 -59 71 -60 -77 -39 -55 -73 -80 39 -37 77 hvcurveto
            return
          </CharString>
          <CharString index="2">
            rmoveto
            -280 275 -219 279 -56 callgsubr
            vhcurveto
            -93 callgsubr
            -404 -223 -243 -379 vhcurveto
            187 78 rmoveto
            -82 callgsubr
            endchar
          </CharString>
          <CharString index="3">
            rmoveto
            -208 51 -412 414 -41 callgsubr
            vhcurveto
            -82 callsubr
            -203 9 -50 -24 -232 vhcurveto
            -74 -51 -108 -212 -208 -44 callgsubr
            227 61 159 16 vvcurveto
            48 -31 40 -48 -53 -31 -26 -36 -15 vhcurveto
            -36 -100 -27 -230 -125 vvcurveto
            endchar
          </CharString>
          <CharString index="4">
            1532 -105 callgsubr
            return
          </CharString>
          <CharString index="5">
            11 49 8 47 65 vvcurveto
            220 -228 235 -276 -242 -210 -156 -195 -107 vhcurveto
            -56 -97 -31 -119 -104 vvcurveto
            187 2 rmoveto
            226 183 269 304 110 199 -149 -87 -10 8 -50 -10 -13 vhcurveto
            return
          </CharString>
          <CharString index="6">
            -72 callgsubr
            hintmask 01111110
            -92 callgsubr
            hintmask 01111101
            -102 callsubr
            hintmask 01111110
            -83 callgsubr
          </CharString>
          <CharString index="7">
            -90 callsubr
            -93 callsubr
          </CharString>
          <CharString index="8">
            -3 19 -13 164 332 vvcurveto
            154 -287 206 -330 234 -242 rrcurveto
            -16 11 38 -29 36 hhcurveto
            169 -16 159 113 8 hvcurveto
            13 243 15 247 7 236 rrcurveto
            4 139 9 132 137 vvcurveto
            112 -29 11 -67 -81 -19 -73 -132 -144 -1 -168 -3 -347 vhcurveto
            -96 -4 -19 -305 -11 hhcurveto
            -24 -91 121 137 -102 hvcurveto
            -88 133 -132 224 -88 157 rrcurveto
            132 -76 15 255 -170 hhcurveto
            -56 -24 -84 -38 hvcurveto
            -111 11 -95 -99 -191 -6 -210 -172 -56 2 -71 -52 vvcurveto
            endchar
          </CharString>
          <CharString index="9">
            rmoveto
            108 36 169 390 24 hhcurveto
            8 11 -13 -25 13 hvcurveto
            59 -115 129 -238 38 -107 rrcurveto
            -5 -75 -24 -1 -31 hhcurveto
            -45 -58 3 3 -254 hvcurveto
            endchar
          </CharString>
          <CharString index="10">
            114 40 157 80 162 vvcurveto
            220 -200 93 -183 -189 -160 -78 -121 -139 vhcurveto
            -72 -64 1 -173 -105 -180 58 -318 -88 -41 -10 -36 -39 vvcurveto
            140 651 rmoveto
            -8 72 0 68 79 vvcurveto
            134 234 76 137 100 109 -31 -141 -128 -461 -125 -111 -4 vhcurveto
            return
          </CharString>
          <CharString index="11">
            rmoveto
            108 268 -39 callsubr
            -50 0 -51 -48 -142 -187 -38 -27 hvcurveto
            -21 -42 -108 -55 -62 vvcurveto
            -59 0 -23 71 vhcurveto
            return
          </CharString>
          <CharString index="12">
            1264 -96 callsubr
            return
          </CharString>
          <CharString index="13">
            1519 -106 callsubr
            return
          </CharString>
          <CharString index="14">
            -257 -30 375 259 120 21 181 21 120 hvcurveto
            3 16 1 18 15 vvcurveto
            47 -16 40 -63 -53 -39 -37 -37 -8 vhcurveto
            -32 -147 -21 -234 -155 vvcurveto
            -316 80 -431 361 vhcurveto
            endchar
          </CharString>
          <CharString index="15">
            1520 -95 callgsubr
            return
          </CharString>
          <CharString index="16">
            88 43 -127 151 hhcurveto
            77 198 78 91 32 1 51 -67 hvcurveto
            -79 -46 -71 -67 hhcurveto
            return
          </CharString>
          <CharString index="17">
            58 63 40 79 hvcurveto
            156 -8 177 147 288 59 253 31 vvcurveto
            68 -29 54 -44 -86 -52 -96 -281 -13 vhcurveto
            -24 -552 rlineto
            -187 -8 -139 -110 -204 hhcurveto
            return
          </CharString>
          <CharString index="18">
            rmoveto
            122 32 101 134 128 85 44 -5 74 -121 26 -26 58 -56 38 -44 62 -16 50 -14 69 55 13 46 return
          </CharString>
          <CharString index="19">
            91 160 7 13 12 vvcurveto
            37 -28 32 -39 -53 -29 -36 -56 -45 vhcurveto
            -93 -114 -138 -265 -99 -171 -7 -12 -28 -42 -14 -19 -82 93 -278 422 -45 75 rrcurveto
            37 -23 -17 8 -37 hhcurveto
            -38 -38 -35 -40 -136 358 -442 59 -99 hvcurveto
            11 -17 14 -32 -23 vvcurveto
            -19 -20 -34 -23 -37 vhcurveto
            -67 -115 -93 -212 -77 vvcurveto
            endchar
          </CharString>
          <CharString index="20">
            224 -49 rmoveto
            -37 13 -77 77 87 21 56 47 23 vhcurveto
            154 242 107 144 107 155 80 112 86 116 107 160 128 189 160 166 153 160 rrcurveto
            29 31 -2 32 15 vvcurveto
            46 -23 23 -45 -43 -46 -38 -29 -27 vhcurveto
            -195 -216 -212 -269 -149 -224 -88 -134 -126 -165 -96 -120 rrcurveto
            -94 -118 -186 -219 -48 vvcurveto
            221 926 rmoveto
            161 103 185 142 132 -51 14 -68 14 hvcurveto
            -20 4 -27 12 -59 8 rrcurveto
            72 -31 5 -58 -134 -81 -240 -82 -165 88 -101 177 vhcurveto
            17 145 rmoveto
            -72 -46 38 87 44 43 75 30 40 93 -32 -38 -53 -43 -121 -45 hvcurveto
            return
          </CharString>
          <CharString index="21">
            rmoveto
            67 0 23 59 38 -56 30 -74 90 hvcurveto
            36 -28 -140 189 -48 hhcurveto
            -50 -52 0 -119 -40 270 -306 111 hvcurveto
            return
          </CharString>
          <CharString index="22">
            -36 callgsubr
            -99 callsubr
          </CharString>
          <CharString index="23">
            192 vstem
            182 -39 callgsubr
            66 97 60 76 rlinecurve
            65 82 265 -584 rlineto
            -59 27 3 -140 77 hhcurveto
            61 46 80 -49 callgsubr
            -163 358 -64 callsubr
            -143 -131 -175 -194 rrcurveto
            -5 85 0 75 77 184 23 189 200 -18 callsubr
            -16 -998 rlineto
            -87 -25 -143 -102 vvcurveto
            return
          </CharString>
          <CharString index="24">
            1266 -86 callsubr
            return
          </CharString>
          <CharString index="25">
            -68 vlineto
            -109 2 -25 99 55 26 18 68 vhcurveto
            2 949 rlineto
            49 -48 20 -32 -38 -57 -18 -56 vhcurveto
            -119 vlineto
            return
          </CharString>
          <CharString index="26">
            rmoveto
            130 295 166 37 16 -67 callgsubr
            return
          </CharString>
          <CharString index="27">
            rmoveto
            143 91 164 125 115 -45 16 -60 11 hvcurveto
            -58 callsubr
            -147 77 -88 157 vhcurveto
            22 147 rmoveto
            -55 callgsubr
            return
          </CharString>
          <CharString index="28">
            64 20 51 5 39 11 rlinecurve
            44 11 29 22 60 vvcurveto
            232 -253 132 -208 return
          </CharString>
          <CharString index="29">
            282 265 219 315 364 -203 227 -333 -47 callsubr
            return
          </CharString>
          <CharString index="30">
            -51 -36 -14 -34 -55 vvcurveto
            -13 1 -15 1 -16 vhcurveto
            -96 -261 -12 -12 -6 -11 rrcurveto
            return
          </CharString>
          <CharString index="31">
            rmoveto
            -5 -181 109 -122 183 -8 211 -8 rcurveline
            -2 -281 rlineto
            -41 44 -44 35 69 54 49 73 vhcurveto
            77 -15 64 55 vvcurveto
            12 2 29 3 33 vhcurveto
            13 15 10 22 15 vvcurveto
            23 -10 26 -12 16 vhcurveto
            179 3 160 183 vvcurveto
            37 -37 57 -51 -51 -43 -28 -69 vhcurveto
            -35 6 -72 -85 vvcurveto
            -106 -3 -122 -5 -66 vhcurveto
            -125 4 rlineto
            -127 3 -73 22 118 37 5 51 43 vvcurveto
            84 -19 71 -67 -64 -32 -36 -45 -1 vhcurveto
            endchar
          </CharString>
          <CharString index="32">
            19 45 33 -4 20 hhcurveto
            53 4 -43 -20 -47 -55 -27 -76 -14 -71 13 14 -25 hvcurveto
            7 -13 -14 9 -17 hhcurveto
            -48 -18 -53 -36 -71 186 -41 50 154 124 76 156 131 -81 73 -83 -40 -42 -2 -15 -19 hvcurveto
            return
          </CharString>
          <CharString index="33">
            188 129 -36 callsubr
            -86 callgsubr
            return
          </CharString>
          <CharString index="34">
            -32 -55 -48 -54 -75 vvcurveto
            -39 12 -38 67 46 84 106 32 24 vhcurveto
            29 37 60 54 -54 callgsubr
            return
          </CharString>
          <CharString index="35">
            27 -121 85 -64 139 3 rrcurveto
            77 111 55 83 40 -24 44 -47 -43 -15 -18 -19 -16 hvcurveto
            -8 -7 -13 -11 -20 hhcurveto
            -25 return
          </CharString>
          <CharString index="36">
            vstem
            214 177 -66 callgsubr
            -12 callgsubr
            734 -18 callgsubr
            -8 -522 rlineto
            -5 -182 21 -167 -179 vvcurveto
            -35 -2 -37 7 -31 vhcurveto
            return
          </CharString>
          <CharString index="37">
            23 19 8 21 37 vvcurveto
            56 -37 44 -57 -59 -11 -46 -21 -42 vhcurveto
            -51 -103 -195 -15 -107 hhcurveto
            -215 -222 140 237 182 95 518 337 121 174 -77 -91 -75 0 -103 82 71 17 86 45 250 -246 135 -228 -261 -176 -212 -171 -64 hvcurveto
            -53 -143 -46 -190 -146 vvcurveto
            endchar
          </CharString>
          <CharString index="38">
            -88 100 -21 55 -70 callgsubr
            vhcurveto
            return
          </CharString>
          <CharString index="39">
            hhcurveto
            79 hlineto
            40 71 54 45 88 -80 30 -27 -11 -23 -10 -9 -23 hvcurveto
            -41 -19 rlineto
            -29 -72 -59 12 -73 hhcurveto
            -243 -162 58 259 212 149 216 243 100 106 -36 -85 37 hvcurveto
            71 -174 61 138 49 vvcurveto
            165 -224 128 -112 -398 -217 -303 -367 vhcurveto
            endchar
          </CharString>
          <CharString index="40">
            1507 rmoveto
            -19 29 25 -9 24 hhcurveto
            27 22 10 16 27 hvcurveto
            90 56 144 39 118 30 rrcurveto
            48 12 35 41 49 vvcurveto
            40 -44 38 -41 -20 -25 -4 -11 -39 vhcurveto
            -165 -44 8 -5 -181 -80 rrcurveto
            67 -139 -116 89 -99 hhcurveto
            -36 -60 -44 -71 -37 49 -25 39 90 22 -31 -107 168 hvcurveto
            return
          </CharString>
          <CharString index="41">
            -1198 -65 callsubr
            hintmask 11010000
            -98 callgsubr
            return
          </CharString>
          <CharString index="42">
            rmoveto
            -61 52 -35 81 41 39 36 67 72 -13 87 -11 83 vhcurveto
            return
          </CharString>
          <CharString index="43">
            rcurveline
            35 34 34 31 32 29 54 48 62 54 30 22 rrcurveto
            40 27 33 14 56 vvcurveto
            64 -20 27 -83 -58 -42 -66 -37 -37 vhcurveto
            -155 -155 return
          </CharString>
          <CharString index="44">
            107 91 59 132 57 vvcurveto
            140 -86 60 -155 -108 -297 -51 -142 -39 55 -32 37 38 19 28 18 26 vhcurveto
            27 52 85 21 65 hhcurveto
            24 62 1 -12 -102 -101 -99 -73 -59 hvcurveto
            -100 -24 -118 -31 -107 vvcurveto
            -49 39 -23 69 vhcurveto
            56 49 37 42 hhcurveto
            return
          </CharString>
          <CharString index="45">
            -268 524 173 hstem
            179 696 vstem
            281 524 rmoveto
            79 70 11 72 86 94 -31 81 hhcurveto
            32 80 48 64 57 -35 36 -55 -80 -106 -3 -3 -72 hvcurveto
            -3 -68 -70 -3 -65 hhcurveto
            -112 -33 -19 -72 -74 51 -8 51 hvcurveto
            endchar
          </CharString>
          <CharString index="46">
            112 hhcurveto
            166 113 -44 -101 29 hvcurveto
            return
          </CharString>
          <CharString index="47">
            493 77 267 377 hvcurveto
            113 -8 115 116 vvcurveto
            -4 89 23 316 -4 54 -43 callsubr
            -80 -2 -53 -96 -73 7 -99 -129 vvcurveto
            -213 -19 -131 -3 -45 vhcurveto
            endchar
          </CharString>
          <CharString index="48">
            -28 callgsubr
            hintmask 11001000
            -91 callsubr
            hintmask 10101000
            -84 callgsubr
            return
          </CharString>
          <CharString index="49">
            -19 3 -24 10 -16 7 rrcurveto
            1 vlineto
            72 -31 5 -58 -134 -81 -221 -73 return
          </CharString>
          <CharString index="50">
            41 40 37 65 hvcurveto
            124 -43 197 120 return
          </CharString>
          <CharString index="51">
            187 238 rmoveto
            -101 18 -159 104 15 33 14 15 25 vhcurveto
            -11 56 112 -3 59 hhcurveto
            336 493 161 489 463 -514 261 -343 hvcurveto
            -197 hlineto
            -86 -105 -27 -153 hvcurveto
            return
          </CharString>
          <CharString index="52">
            rmoveto
            -46 91 -48 29 38 31 62 21 8 vhcurveto
            136 353 277 490 184 312 rrcurveto
            return
          </CharString>
          <CharString index="53">
            31 1038 hstem
            90 226 vstem
            271 299 rmoveto
            -52 100 162 -216 78 hhcurveto
            41 61 7 83 hvcurveto
            142 -397 222 43 77 361 256 139 vvcurveto
            52 -45 17 -32 return
          </CharString>
          <CharString index="54">
            rmoveto
            -255 263 -303 304 return
          </CharString>
          <CharString index="55">
            -55 -32 -25 callsubr
            -27 -140 -20 -51 callsubr
            return
          </CharString>
          <CharString index="56">
            -163 -149 -42 callsubr
            return
          </CharString>
          <CharString index="57">
            -21 -24 rrcurveto
            -112 -96 -133 -5 -141 hhcurveto
            -66 5 -89 return
          </CharString>
          <CharString index="58">
            -764 1348 234 hstem
            130 280 vstem
            285 1348 -45 callgsubr
          </CharString>
          <CharString index="59">
            -365 -364 -192 -517 return
          </CharString>
          <CharString index="60">
            -287 -291 -154 -413 return
          </CharString>
          <CharString index="61">
            464 -257 282 -423 -365 -365 -191 -522 vhcurveto
            155 37 rmoveto
            363 258 175 360 280 196 -228 -351 return
          </CharString>
          <CharString index="62">
            -441 -2 179 999 190 return
          </CharString>
          <CharString index="63">
            309 -26 169 1076 171 return
          </CharString>
          <CharString index="64">
            rrcurveto
            48 -3 -25 53 -69 hhcurveto
            -84 -16 -107 -75 hvcurveto
            return
          </CharString>
          <CharString index="65">
            vvcurveto
            -381 10 -82 5 -21 vhcurveto
            return
          </CharString>
          <CharString index="66">
            rmoveto
            -3 -41 -8 -92 -50 callsubr
            0 8 -81 rrcurveto
            -15 callgsubr
            return
          </CharString>
          <CharString index="67">
            -141 -35 -344 -172 hvcurveto
            -11 -2 -18 -12 vvcurveto
            -73 -69 -1 17 -56 hvcurveto
            -88 27 -57 -36 -84 vvcurveto
            -59 28 -29 55 vhcurveto
            return
          </CharString>
          <CharString index="68">
            305 42 119 return
          </CharString>
          <CharString index="69">
            hstem
            182 183 720 184 vstem
            182 103 rmoveto
            -101 76 -6 35 80 1 64 52 vhcurveto
            45 -9 58 41 vvcurveto
            return
          </CharString>
          <CharString index="70">
            126 147 hhcurveto
            116 37 -37 -51 -85 -103 -121 -32 -64 hvcurveto
            -104 -203 -153 -203 -41 vvcurveto
            endchar
          </CharString>
          <CharString index="71">
            rmoveto
            -92 24 -42 93 72 25 71 24 43 -7 46 -3 43 vhcurveto
            return
          </CharString>
          <CharString index="72">
            93 83 -22 -93 -167 -199 -11 -155 hvcurveto
            -103 15 50 -100 hhcurveto
            -52 -23 -87 -29 -39 14 -57 74 hvcurveto
            return
          </CharString>
          <CharString index="73">
            51 4 56 53 vvcurveto
            60 -50 52 -54 -80 -2 -67 -211 return
          </CharString>
          <CharString index="74">
            -13 -24 159 797 165 return
          </CharString>
          <CharString index="75">
            433 -163 163 return
          </CharString>
          <CharString index="76">
            hvcurveto
            -5 -19 -17 -93 -11 -67 rrcurveto
            -3 -4 1 -3 hhcurveto
            -194 4 rlineto
            -52 -40 -44 -52 -42 39 -46 53 return
          </CharString>
          <CharString index="77">
            479 740 rmoveto
            -63 callgsubr
            vvcurveto
            return
          </CharString>
          <CharString index="78">
            1292 -46 callgsubr
            return
          </CharString>
          <CharString index="79">
            hhcurveto
            41 76 4 95 69 -45 16 -36 -27 -26 -1 -3 -24 hvcurveto
            -2 hlineto
            -3 -39 -40 -1 -39 return
          </CharString>
          <CharString index="80">
            192 -12 190 120 vvcurveto
            35 -16 83 -64 return
          </CharString>
          <CharString index="81">
            137 41 210 141 vvcurveto
            52 -28 44 -60 return
          </CharString>
          <CharString index="82">
            -71 -23 -3 vhcurveto
            return
          </CharString>
          <CharString index="83">
            rmoveto
            -86 92 -17 75 65 86 76 32 86 -130 37 -45 -85 -58 -37 -91 vhcurveto
            endchar
          </CharString>
          <CharString index="84">
            -555 158 137 141 -135 -21 return
          </CharString>
          <CharString index="85">
            119 1388 return
          </CharString>
          <CharString index="86">
            vvcurveto
            193 hlineto
            96 86 15 72 62 0 119 -93 -21 -19 -20 -20 -17 hvcurveto
            return
          </CharString>
          <CharString index="87">
            165 hstemhm
            550 207 -204 201 -189 213 -186 216 return
          </CharString>
          <CharString index="88">
            8 13 169 240 10 vvcurveto
            69 -47 73 -77 -62 -225 -377 -53 return
          </CharString>
          <CharString index="89">
            vvcurveto
            67 -55 28 -36 -46 -52 -32 -59 vhcurveto
            return
          </CharString>
          <CharString index="90">
            rmoveto
            -131 181 -31 83 217 176 89 212 127 vhcurveto
            return
          </CharString>
          <CharString index="91">
            -32 callsubr
            hstemhm
            return
          </CharString>
          <CharString index="92">
            -718 -28 1127 return
          </CharString>
          <CharString index="93">
            180 164 206 159 339 177 265 163 return
          </CharString>
          <CharString index="94">
            43 32 -15 53 hhcurveto
            75 44 56 51 return
          </CharString>
          <CharString index="95">
            rmoveto
            -107 71 -11 55 -13 callgsubr
            vhcurveto
            return
          </CharString>
          <CharString index="96">
            -66 -50 -63 -11 -93 -3 rrcurveto
            145 5 115 5 80 vhcurveto
            return
          </CharString>
          <CharString index="97">
            -144 vvcurveto
            -63 43 -51 65 104 0 126 55 vhcurveto
            2 return
          </CharString>
          <CharString index="98">
            147 197 185 return
          </CharString>
          <CharString index="99">
            hstem
            128 182 return
          </CharString>
          <CharString index="100">
            rmoveto
            -3 -37 2 -39 -51 vvcurveto
            -75 3 63 -17 49 return
          </CharString>
          <CharString index="101">
            47 -31 166 1385 return
          </CharString>
          <CharString index="102">
            25 46 21 275 157 return
          </CharString>
          <CharString index="103">
            234 hstem
            150 280 return
          </CharString>
          <CharString index="104">
            vlineto
            95 156 134 172 373 19 return
          </CharString>
          <CharString index="105">
            -222 -43 -78 -361 -254 -140 vvcurveto
            return
          </CharString>
          <CharString index="106">
            -124 95 937 hstem
            175 875 vstem
            return
          </CharString>
          <CharString index="107">
            hstemhm
            188 180 return
          </CharString>
          <CharString index="108">
            hstem
            14 callsubr
            return
          </CharString>
          <CharString index="109">
            vvcurveto
            40 -36 36 -45 -64 -45 -79 -44 vhcurveto
            return
          </CharString>
          <CharString index="110">
            -168 -35 13 -25 hhcurveto
            -37 -44 -59 -39 return
          </CharString>
          <CharString index="111">
            65 1219 163 return
          </CharString>
          <CharString index="112">
            167 747 166 return
          </CharString>
          <CharString index="113">
            214 167 return
          </CharString>
          <CharString index="114">
            153 180 return
          </CharString>
          <CharString index="115">
            hstemhm
            464 184 -116 157 return
          </CharString>
          <CharString index="116">
            hstemhm
            174 184 -160 213 return
          </CharString>
          <CharString index="117">
            rmoveto
            -85 42 -41 80 67 60 65 61 return
          </CharString>
          <CharString index="118">
            505 hstem
            133 398 vstem
            return
          </CharString>
          <CharString index="119">
            173 hstem
            247 185 vstem
            return
          </CharString>
          <CharString index="120">
            1578 hstem
            218 184 return
          </CharString>
          <CharString index="121">
            133 173 return
          </CharString>
        <CharString name=".notdef">
          750 -187 158 136 220 1150 181 hstemhm
          173 197 -161 191 1369 173 hintmask 11110100
          174 -3 -7 callsubr
          273 394 35 844 9 callgsubr
          166 -4 483 164 vvcurveto
          246 12 363 -19 222 vhcurveto
          75 -5 -62 17 -48 -235 -1193 3 -40 hhcurveto
          hintmask 11101100
          -115 -23 -34 -75 -5 hvcurveto
          -4 -166 8 -486 -4 -161 -8 -187 -19 -388 -8 -167 rrcurveto
          hintmask 11110100
          196 13 rmoveto
          hintmask 11101100
          -11 302 41 812 309 vvcurveto
          29 18 15 35 vhcurveto
          963 229 -12 39 hhcurveto
          53 -2 -26 -25 3 hvcurveto
          43 -310 -9 -763 -21 -303 rrcurveto
          -56 7 15 -78 vhcurveto
          -1109 -119 -26 -32 hhcurveto
          hintmask 11110100
          -37 -13 10 29 hvcurveto
          165 237 rmoveto
          -78 69 -19 71 90 18 108 36 10 vhcurveto
          5 21 128 154 69 75 26 -36 25 -34 25 -32 43 -56 47 -61 31 -29 rrcurveto
          -81 83 128 -108 102 hhcurveto
          56 66 31 98 28 -5 21 -23 28 hvcurveto
          27 -24 -13 -13 -31 hhcurveto
          -92 -79 101 116 -95 hvcurveto
          -48 56 -51 76 -32 53 72 96 55 69 69 77 52 60 197 172 -1 1 rrcurveto
          17 16 8 19 19 vvcurveto
          39 -36 38 -65 -162 -223 -338 -120 -96 vhcurveto
          84 -68 -176 369 -99 hhcurveto
          -62 -43 -39 -43 -83 65 -53 35 -59 hvcurveto
          80 -132 126 -218 6 vvcurveto
          -15 -30 -138 -154 -35 -50 rrcurveto
          -64 -91 -92 -28 -109 vvcurveto
          endchar
        </CharString>
        <CharString name=".null">
          endchar
        </CharString>
        <CharString name="A">
          -32 callgsubr
          hstem
          -22 callsubr
          vstem
          119 86 -107 callgsubr
        </CharString>
        <CharString name="AE">
          855 9 173 364 170 413 190 hstemhm
          1010 162 -157 177 -166 188 hintmask 11110000
          21 51 rmoveto
          -54 79 -40 35 70 36 54 39 26 vhcurveto
          111 171 107 165 109 160 rrcurveto
          hintmask 11100100
          432 -3 rlineto
          -435 vlineto
          -68 49 -49 64 vhcurveto
          13 197 157 5 129 179 57 -35 72 hhcurveto
          52 60 24 73 49 -13 70 -141 hvcurveto
          -109 -250 -8 -184 hhcurveto
          -49 -44 -1 3 -35 hvcurveto
          25 -5 266 66 vvcurveto
          509 -5 rlineto
          40 35 48 51 36 -43 63 -56 hvcurveto
          -68 -9 rlineto
          -5 -37 -43 -4 -23 hhcurveto
          -322 hlineto
          -5 115 rlineto
          hintmask 11101000
          -5 137 -2 76 41 vvcurveto
          45 2 5 1 vhcurveto
          1 hlineto
          810 -6 rlineto
          43 43 46 39 90 -34 15 -117 hvcurveto
          -186 -321 -11 -165 hhcurveto
          -40 -28 13 13 -24 hvcurveto
          2 hlineto
          -17 7 -16 5 -15 4 rrcurveto
          5 -12 -14 2 -15 hhcurveto
          -40 -81 -51 -27 -24 hvcurveto
          -206 -230 -124 -163 -120 -167 rrcurveto
          -35 -5 -35 -19 -64 vvcurveto
          -11 vlineto
          -104 -149 -113 -161 -170 -215 rrcurveto
          -11 -14 -6 -15 -15 vvcurveto
          695 668 rmoveto
          99 137 97 124 103 112 rrcurveto
          hintmask 11100100
          -149 11 -118 -39 vvcurveto
          -69 vlineto
          1 -117 -106 1 -87 hhcurveto
          endchar
        </CharString>
        <CharString name="Aacute">
          -32 callgsubr
          858 350 -17 callgsubr
          -1034 540 hintmask 11010000
          557 -89 callgsubr
          hintmask 11100000
          -438 -1434 -107 callgsubr
        </CharString>
        <CharString name="Acircumflex">
          -32 callgsubr
          858 177 -17 callgsubr
          -1302 957 hintmask 11010000
          290 -103 callsubr
          hintmask 11100000
          -171 -1446 -107 callgsubr
        </CharString>
        <CharString name="Adieresis">
          -32 callgsubr
          857 245 -17 callgsubr
          -1182 233 hintmask 11010000
          469 -94 callsubr
          hintmask 11100000
          -829 -1433 -107 callgsubr
        </CharString>
        <CharString name="Agrave">
          -32 callgsubr
          858 347 -17 callgsubr
          -1136 541 hintmask 11010000
          830 -92 callsubr
          hintmask 11100000
          -711 -1434 -107 callgsubr
        </CharString>
        <CharString name="Aring">
          -32 callgsubr
          658 -9 callsubr
          -17 callgsubr
          -988 -8 callgsubr
          hintmask 11110000
          119 86 -106 callgsubr
          -28 64 -120 253 -99 110 rrcurveto
          hintmask 11101100
          87 50 52 118 94 vvcurveto
          115 -45 16 -60 11 vhcurveto
          -58 callsubr
          -117 49 -78 97 -29 vhcurveto
          -32 -41 -25 -53 -20 -43 -254 -530 rcurveline
          -77 callsubr
          hintmask 11110000
          -19 -36 -19 -41 -48 vvcurveto
          656 1381 rmoveto
          hintmask 11101100
          -55 callgsubr
          -242 -805 -98 callsubr
        </CharString>
        <CharString name="Atilde">
          -32 callgsubr
          859 181 -54 180 -17 callgsubr
          -1201 799 hintmask 10110000
          371 -59 callsubr
          hintmask 10110000
          -252 -1462 -107 callgsubr
        </CharString>
        <CharString name="B">
          24 5 193 1023 170 hstem
          207 174 445 183 76 8 callgsubr
          198 88 rmoveto
          -69 101 -34 56 vhcurveto
          56 -3 24 33 16 18 -4 15 hhcurveto
          56 41 6 13 112 hvcurveto
          298 35 267 107 364 vvcurveto
          251 -154 148 -228 54 vhcurveto
          56 43 71 67 93 vvcurveto
          132 -177 73 -115 -128 -145 -20 -35 -139 vhcurveto
          -44 -13 -46 -52 -3 -57 rrcurveto
          -5 -168 0 -168 -126 vvcurveto
          -190 vlineto
          -8 -327 rlineto
          -1 -29 10 -27 -11 vvcurveto
          -3 -27 -7 -22 -31 vvcurveto
          181 864 rmoveto
          4 178 rlineto
          72 206 19 55 113 69 -29 -36 -75 -124 -33 -49 -30 vhcurveto
          -55 -5 -71 -9 -32 -5 -43 -12 -33 -26 -40 -9 rrcurveto
          18 -745 rmoveto
          1 25 1 25 24 125 -17 124 121 31 3 37 31 vvcurveto
          13 11 13 9 9 12 22 -5 17 70 61 85 98 hhcurveto
          178 209 -109 -195 -301 -299 -49 -253 -27 -109 6 3 hvcurveto
          endchar
        </CharString>
        <CharString name="C">
          85 -19 166 1077 170 hstem
          149 177 727 170 vstem
          149 532 rmoveto
          -447 327 -104 312 178 276 37 85 101 vhcurveto
          -70 callsubr
        </CharString>
        <CharString name="CR">
          endchar
        </CharString>
        <CharString name="Ccedilla">
          85 -23 callsubr
          256 166 1077 170 hstemhm
          149 177 551 163 13 170 hintmask 10111111
          149 532 rmoveto
          -375 230 -135 259 -32 vhcurveto
          -11 -68 -15 -55 -67 -3 callgsubr
          hintmask 11011111
          -75 callsubr
          7 31 4 47 3 39 rrcurveto
          178 274 36 86 102 hvcurveto
          -70 callsubr
        </CharString>
        <CharString name="D">
          217 -7 180 1028 166 hstem
          187 183 886 182 vstem
          -56 callsubr
          207 -997 rmoveto
          -24 188 -6 353 167 -52 callgsubr
        </CharString>
        <CharString name="E">
          -51 callgsubr
          hstem
          6 callsubr
          vstem
          214 135 -107 callsubr
        </CharString>
        <CharString name="Eacute">
          -51 callgsubr
          212 350 hstem
          6 callsubr
          103 540 vstem
          568 -89 callgsubr
          -354 -1385 -107 callsubr
        </CharString>
        <CharString name="Ecircumflex">
          -51 callgsubr
          212 177 hstemhm
          6 callsubr
          -165 957 hintmask 11110100
          301 -103 callsubr
          hintmask 11111000
          -87 -1397 -107 callsubr
        </CharString>
        <CharString name="Edieresis">
          -51 callgsubr
          211 245 hstemhm
          6 callsubr
          -45 233 hintmask 11110100
          480 -94 callsubr
          hintmask 11111000
          -745 -1384 -107 callsubr
        </CharString>
        <CharString name="Egrave">
          -51 callgsubr
          212 347 hstem
          6 callsubr
          1 541 vstem
          841 -92 callsubr
          -627 -1385 -107 callsubr
        </CharString>
        <CharString name="Eth">
          217 -7 180 406 187 435 166 hstemhm
          32 734 -579 183 886 182 hintmask 11101100
          -56 callsubr
          -3 -430 -49 10 rlineto
          hintmask 11110100
          -60 10 -49 -40 -60 vvcurveto
          -88 62 -10 52 15 13 0 1 15 vhcurveto
          hintmask 11101100
          211 -390 rmoveto
          -13 103 -10 154 -3 146 rrcurveto
          62 119 -23 94 hhcurveto
          hintmask 11110100
          35 82 34 66 60 -36 36 -56 -103 -103 -3 -3 -97 hvcurveto
          hintmask 11101100
          -1 53 0 46 39 -52 callgsubr
        </CharString>
        <CharString name="Euro">
          232 0 169 235 178 -159 176 85 170 -150 173 306 183 hstemhm
          282 179 678 186 hintmask 10101111
          232 423 rmoveto
          57 hlineto
          -340 48 285 -83 273 hhcurveto
          171 264 35 82 98 hvcurveto
          21 17 9 21 36 vvcurveto
          53 -35 43 -56 -55 -13 -44 -21 -39 vhcurveto
          -40 -99 -187 -13 -103 hhcurveto
          -167 -173 88 157 -53 hvcurveto
          39 -1 rlineto
          hintmask 11001111
          -5 121 97 -4 79 hhcurveto
          140 43 26 60 85 -36 20 -92 hvcurveto
          -45 -124 -15 -43 hhcurveto
          -193 4 3 36 6 40 8 44 rlinecurve
          188 hlineto
          45 49 -6 -5 51 hvcurveto
          hintmask 10110111
          -6 51 52 -3 53 hhcurveto
          71 85 -7 104 68 -60 16 -40 hvcurveto
          -49 -41 -11 -43 hhcurveto
          -72 -132 11 5 -106 hvcurveto
          -56 3 rlineto
          163 59 107 147 173 hhcurveto
          82 191 -36 -82 -60 0 -81 89 68 29 62 64 216 -247 100 -220 -250 -173 -210 -167 -58 hvcurveto
          -12 -33 -11 -36 -11 -36 rrcurveto
          -59 3 -92 -34 -70 vvcurveto
          -39 42 -51 40 vhcurveto
          -1 10 1 15 hhcurveto
          -7 -32 -3 -31 -3 -31 -53 3 rcurveline
          -68 3 -22 -53 -41 vvcurveto
          -36 31 -53 59 vhcurveto
          endchar
        </CharString>
        <CharString name="F">
          -52 638 201 314 183 hstem
          205 172 vstem
          187 145 rmoveto
          -77 32 -63 93 75 9 81 57 vhcurveto
          145 -9 119 119 4 -1 24 43 vvcurveto
          162 155 41 157 hhcurveto
          125 68 13 91 20 -1 77 -80 -54 -40 -19 -5 -42 hvcurveto
          -16 -129 -132 -21 -125 hhcurveto
          -35 -38 8 28 205 2 38 8 79 hvcurveto
          4 8 13 11 vhcurveto
          290 6 rlineto
          3 146 149 3 13 hhcurveto
          -5 22 131 -28 22 hhcurveto
          65 28 32 60 63 -78 64 -52 hvcurveto
          -29 -68 -15 -28 hhcurveto
          -506 hlineto
          -71 -65 29 -70 hhcurveto
          -100 0 -211 -62 hvcurveto
          -792 vlineto
          -45 -18 -91 -19 vvcurveto
          endchar
        </CharString>
        <CharString name="G">
          115 0 166 361 189 485 174 hstem
          166 179 784 174 vstem
          166 675 rmoveto
          -437 207 -238 430 136 126 45 43 78 vhcurveto
          -24 13 18 -31 71 hhcurveto
          43 27 16 101 13 -4 21 -8 103 hvcurveto
          -5 81 7 96 1 84 rrcurveto
          31 17 20 25 44 vvcurveto
          44 -46 54 -53 vhcurveto
          -60 -81 -25 -57 hhcurveto
          -51 4 rlineto
          3 -29 -35 2 -27 hhcurveto
          -68 -60 -16 -71 -67 78 -35 62 60 72 -1 11 64 hvcurveto
          -44 3 -88 -32 vvcurveto
          -138 -42 -69 -254 -279 -209 133 335 248 243 319 228 95 84 -18 -65 81 vhcurveto
          -25 49 24 -93 67 hhcurveto
          11 4 9 6 9 7 rrcurveto
          15 13 15 21 39 vvcurveto
          94 -64 48 -55 42 vhcurveto
          56 -75 -132 45 -126 hhcurveto
          -411 -246 -488 -212 hvcurveto
          endchar
        </CharString>
        <CharString name="H">
          112 593 177 hstemhm
          197 184 -173 193 668 181 -145 189 hintmask 10101000
          208 85 rmoveto
          -52 54 -28 36 37 66 33 38 vhcurveto
          161 -16 171 149 vvcurveto
          15 9 17 7 vhcurveto
          560 114 4 24 hhcurveto
          6 -450 rlineto
          -112 30 -36 63 59 37 46 53 48 -4 124 -16 352 vhcurveto
          2 10 2 10 3 9 rrcurveto
          3 16 4 20 12 vvcurveto
          25 -16 42 -8 16 vhcurveto
          hintmask 11010000
          -8 203 -6 130 91 vvcurveto
          80 -10 87 -85 -67 -19 -58 -70 -157 10 -153 3 -157 vhcurveto
          -9 -13 1 5 -673 hhcurveto
          -11 -5 6 13 hvcurveto
          -4 450 rlineto
          55 -56 65 -39 -77 -8 -74 -48 vhcurveto
          hintmask 10101000
          -573 11 -189 -390 vvcurveto
          endchar
        </CharString>
        <CharString name="I">
          -45 callsubr
          hstem
          353 182 vstem
          153 90 -80 callgsubr
          -104 callgsubr
        </CharString>
        <CharString name="IJ">
          38 -22 187 hstem
          199 190 625 197 vstem
          350 444 rmoveto
          43 40 32 59 hvcurveto
          107 -44 167 103 107 24 167 109 vvcurveto
          47 -13 39 -60 -64 -33 -64 -20 -6 vhcurveto
          -21 -108 -17 -126 -117 vvcurveto
          -328 9 -67 6 -20 vhcurveto
          -64 16 37 -23 83 hhcurveto
          -89 -304 rmoveto
          -131 237 -31 107 233 194 89 212 133 vhcurveto
          -5 callsubr
          -27 callsubr
          -95 -25 -79 -73 vhcurveto
          -33 callgsubr
          -145 -191 -124 -176 -36 -95 3 14 -36 vhcurveto
          25 -33 -25 53 -46 hhcurveto
          -68 -38 -72 -48 hvcurveto
          endchar
        </CharString>
        <CharString name="Iacute">
          -45 callsubr
          154 350 hstemhm
          243 540 -430 182 hintmask 11110000
          327 -53 callgsubr
          -174 -1430 -96 callgsubr
        </CharString>
        <CharString name="Icircumflex">
          -45 callsubr
          154 177 hstemhm
          -25 957 -579 182 hintmask 11110000
          60 -103 callsubr
          93 -1442 -96 callgsubr
        </CharString>
        <CharString name="Idieresis">
          -45 callsubr
          153 245 hstem
          95 233 25 182 vstem
          239 -94 callsubr
          -565 -1429 -80 callgsubr
          -104 callgsubr
        </CharString>
        <CharString name="Igrave">
          -45 callsubr
          154 347 hstemhm
          141 541 -329 182 hintmask 11110000
          600 -92 callsubr
          -447 -1430 -96 callgsubr
        </CharString>
        <CharString name="Itilde">
          -45 callsubr
          155 -43 callgsubr
          76 799 -522 182 hintmask 11010100
          141 -28 callgsubr
          hintmask 11101000
          -91 callsubr
          hintmask 11011000
          -84 callgsubr
          12 -1458 -80 callgsubr
          hintmask 11010100
          -104 callgsubr
        </CharString>
        <CharString name="J">
          -289 -22 177 hstemhm
          721 190 -175 187 hintmask 10100000
          93 140 -17 callsubr
          -5 callsubr
          vvcurveto
          hintmask 11000000
          -27 callsubr
          -87 -23 -79 -73 vhcurveto
          hintmask 10100000
          -50 callgsubr
        </CharString>
        <CharString name="Jcircumflex">
          -289 -22 177 1365 177 hstemhm
          285 957 -521 190 -175 187 hintmask 11100000
          370 -103 callsubr
          -277 -1392 -17 callsubr
          hintmask 11001000
          -5 callsubr
          vvcurveto
          hintmask 11010000
          -27 callsubr
          -87 -23 -79 -73 vhcurveto
          hintmask 11001000
          -50 callgsubr
        </CharString>
        <CharString name="K">
          16 -123 1513 hstem
          218 2 callgsubr
          223 50 rmoveto
          -44 3 55 -34 55 hhcurveto
          43 54 45 33 hvcurveto
          -3 63 -4 59 -5 57 rrcurveto
          -9 65 -7 66 64 vvcurveto
          28 0 17 3 29 vhcurveto
          68 99 84 109 95 76 56 -28 280 -587 27 -59 rrcurveto
          -50 19 69 -181 73 hhcurveto
          80 24 52 62 85 -133 215 -64 112 hvcurveto
          -89 151 -69 136 -79 133 -17 29 -24 28 -13 31 40 56 87 108 9 9 rrcurveto
          61 77 92 10 116 vvcurveto
          59 -45 19 -25 -88 -10 -27 -53 -40 vhcurveto
          -14 -17 -39 -48 -43 -45 -40 -47 -44 -51 -21 -27 -52 -11 -37 -29 -24 -63 -163 -182 rcurveline
          -5 37 -3 79 26 vvcurveto
          7 399 rlineto
          59 -44 25 -41 -67 -22 -56 -45 -3 vhcurveto
          -4 -190 1 -430 -294 vvcurveto
          -129 -2 -107 7 -89 vhcurveto
          endchar
        </CharString>
        <CharString name="L">
          -161 19 165 hstemhm
          187 5 callgsubr
          hintmask 10100000
          -64 callgsubr
          hintmask 11000000
          -34 callsubr
          vhcurveto
          hintmask 10100000
          -20 callgsubr
          endchar
        </CharString>
        <CharString name="Ldotaccent">
          -161 19 165 396 234 hstemhm
          187 5 callgsubr
          301 280 hintmask 11011000
          -64 callgsubr
          hintmask 11101000
          -34 callsubr
          vhcurveto
          hintmask 11011000
          -20 callgsubr
          470 630 rmoveto
          -69 callsubr
          endchar
        </CharString>
        <CharString name="Lslash">
          -38 57 165 259 615 hstemhm
          -13 894 -696 5 callgsubr
          hintmask 11100000
          198 97 -75 callgsubr
          -3 136 -4 127 -5 128 426 269 rcurveline
          39 24 35 27 40 vvcurveto
          53 -60 36 -33 -27 -25 -12 -13 -19 vhcurveto
          -100 -72 -121 -80 -123 -76 rrcurveto
          hintmask 11001000
          -4 99 -2 98 97 vvcurveto
          hintmask 11010000
          -34 callsubr
          -133 9 -128 8 -128 vhcurveto
          -67 -37 -60 -31 -53 -25 rrcurveto
          hintmask 11100000
          -24 -11 -11 -28 -31 vvcurveto
          -48 28 -50 72 17 19 4 11 19 vhcurveto
          72 46 rlineto
          hintmask 11001000
          3 -48 1 -47 -47 -26 callgsubr
          endchar
        </CharString>
        <CharString name="M">
          347 -35 1412 hstemhm
          198 177 -164 202 929 169 hintmask 11010000
          188 177 rmoveto
          -96 6 -74 120 60 20 59 88 31 -15 35 -4 27 vhcurveto
          361 vlineto
          109 1 85 3 67 vhcurveto
          131 -268 rlineto
          -82 39 158 -293 86 hhcurveto
          69 12 21 11 13 hvcurveto
          169 141 127 334 156 204 rrcurveto
          3 -55 0 -55 -49 vvcurveto
          -504 vlineto
          -5 -63 -38 -70 -65 vvcurveto
          -92 131 -19 7 15 59 13 52 vhcurveto
          421 19 415 401 vvcurveto
          68 -42 42 -68 -50 -22 -40 -45 -16 vhcurveto
          -15 -27 -9 -29 -11 -24 -64 -137 -135 -185 -82 -138 -79 -132 -32 -47 -22 -35 rrcurveto
          -15 -10 -47 -60 -27 hhcurveto
          -10 -91 183 69 -33 hvcurveto
          -52 104 -181 324 -12 81 rrcurveto
          hintmask 10110000
          -2 13 -2 10 -3 9 rrcurveto
          5 vlineto
          51 -29 61 -58 -68 -47 -107 -120 vhcurveto
          hintmask 11010000
          -99 -13 -193 -584 -29 -10 -33 -31 vvcurveto
          endchar
        </CharString>
        <CharString name="N">
          85 -67 1529 hstem
          213 171 692 196 vstem
          209 177 -85 callsubr
        </CharString>
        <CharString name="Nacute">
          80 -67 1529 58 350 hstem
          208 171 98 540 54 196 vstem
          561 -89 callgsubr
          -357 -1343 -85 callsubr
        </CharString>
        <CharString name="Ntilde">
          80 -67 1529 59 -43 callgsubr
          208 171 -69 799 -38 196 hintmask 10110100
          375 -59 callsubr
          -171 -1371 -36 callgsubr
          hintmask 10110100
          -99 callsubr
        </CharString>
        <CharString name="O">
          -44 callsubr
          -8 callsubr
          1041 8 callgsubr
          128 681 -102 callgsubr
        </CharString>
        <CharString name="OE">
          1110 805 334 hstem
          128 2219 vstem
          128 681 rmoveto
          -321 327 -386 383 180 184 79 122 130 vhcurveto
          -40 vlineto
          -68 49 -50 65 vhcurveto
          91 85 11 80 456 -42 -54 93 hhcurveto
          75 60 24 73 45 -17 64 -72 hvcurveto
          -36 -98 -3 -44 hhcurveto
          -71 -191 31 5 -131 hvcurveto
          -11 -24 5 -129 hhcurveto
          -3 168 -1 177 -3 67 rrcurveto
          540 hlineto
          57 23 69 19 71 -43 29 -52 hvcurveto
          -67 -47 -13 -40 -109 -169 4 -107 hhcurveto
          3 106 -20 150 16 80 762 -6 rcurveline
          43 44 44 34 90 -36 12 -117 hvcurveto
          -183 -260 -11 -161 hhcurveto
          -39 -28 13 13 -24 hvcurveto
          1 hlineto
          12 -27 -25 9 -28 hhcurveto
          -74 -24 -66 -67 -5 hvcurveto
          111 -116 -153 57 -193 hhcurveto
          -364 -363 -192 -517 hvcurveto
          190 30 rmoveto
          336 275 162 287 179 197 -101 -169 78 vhcurveto
          -158 vlineto
          -11 -15 -10 -33 -20 vvcurveto
          -25 9 -27 12 -21 vhcurveto
          -213 vlineto
          -188 -85 -241 -91 -183 hhcurveto
          -263 -244 296 267 hvcurveto
          endchar
        </CharString>
        <CharString name="Oacute">
          -44 callsubr
          130 350 -8 callsubr
          281 540 220 8 callgsubr
          675 -89 callgsubr
          -547 -839 -102 callgsubr
        </CharString>
        <CharString name="Ocircumflex">
          -44 callsubr
          130 177 -8 callsubr
          13 957 71 8 callgsubr
          408 -103 callsubr
          -280 -851 -102 callgsubr
        </CharString>
        <CharString name="Odieresis">
          -44 callsubr
          129 245 -8 callsubr
          133 233 675 8 callgsubr
          587 -94 callsubr
          -938 -838 -102 callgsubr
        </CharString>
        <CharString name="Ograve">
          -44 callsubr
          130 347 -8 callsubr
          179 541 321 8 callgsubr
          948 -92 callsubr
          -820 -839 -102 callgsubr
        </CharString>
        <CharString name="Oslash">
          309 -26 174 1061 181 hstem
          128 192 1021 189 vstem
          251 29 rmoveto
          -54 84 -53 33 69 45 97 48 29 vhcurveto
          -60 96 113 -33 119 hhcurveto
          -47 callgsubr
          235 -67 184 -119 128 hvcurveto
          36 36 -2 0 37 37 rrcurveto
          15 15 11 26 33 vvcurveto
          43 -53 27 -34 -45 -45 -40 -25 -25 vhcurveto
          -38 -38 rlineto
          53 -96 -119 27 -129 hhcurveto
          -48 callsubr
          -179 81 -174 148 -140 hvcurveto
          -97 -126 rlineto
          -9 -11 0 -11 -11 vvcurveto
          213 317 rmoveto
          -88 107 -56 129 129 vvcurveto
          336 276 162 285 69 67 -20 -25 59 vhcurveto
          -225 -265 -264 -374 -123 -179 rrcurveto
          141 -131 rmoveto
          89 132 126 175 136 200 81 121 83 106 96 107 rrcurveto
          77 -92 48 -126 -165 vvcurveto
          -339 -238 -186 -277 -77 -75 24 43 -69 vhcurveto
          endchar
        </CharString>
        <CharString name="Otilde">
          -44 callsubr
          131 -43 callgsubr
          128 182 114 799 128 179 hintmask 11011110
          489 -28 callgsubr
          hintmask 11101110
          -91 callsubr
          hintmask 11011110
          -84 callgsubr
          -361 -867 -102 callgsubr
        </CharString>
        <CharString name="P">
          -33 473 185 548 165 hstem
          225 169 655 176 vstem
          265 13 rmoveto
          -15 23 38 -5 25 hhcurveto
          35 57 5 54 154 -29 99 -11 176 hvcurveto
          13 -2 12 -2 12 -1 21 -3 25 -1 19 1 217 12 301 113 87 87 rrcurveto
          25 25 90 86 219 vvcurveto
          233 -174 123 -351 -162 -78 -65 -14 -57 vhcurveto
          8 -13 -15 4 -16 hhcurveto
          -19 -23 -6 -11 -11 hvcurveto
          -76 -74 -5 -121 -109 vvcurveto
          -66 1 -40 -11 -263 vhcurveto
          -9 -17 rlineto
          -5 -11 -4 -10 -11 vvcurveto
          -20 13 -28 15 -23 vhcurveto
          -82 vlineto
          -134 -2 -236 42 -29 vhcurveto
          134 667 rmoveto
          -3 42 -2 78 49 vvcurveto
          53 2 90 5 40 vhcurveto
          45 24 11 59 3 9 rrcurveto
          65 24 133 17 100 hhcurveto
          237 95 -87 -157 -71 -35 -65 -39 -43 hvcurveto
          -55 -52 -255 -70 -111 hhcurveto
          -53 -42 17 5 -63 hvcurveto
          endchar
        </CharString>
        <CharString name="Q">
          338 -26 170 1080 166 hstem
          129 184 1040 178 vstem
          129 716 rmoveto
          -461 253 -281 421 155 152 34 80 128 vhcurveto
          57 -72 37 -54 7 -9 rrcurveto
          -37 18 76 -8 34 hhcurveto
          53 29 31 41 47 -77 97 -88 93 hvcurveto
          91 112 56 151 205 vvcurveto
          322 -331 383 -380 -357 -334 -276 -398 vhcurveto
          184 -28 rmoveto
          344 241 192 283 267 249 -302 -273 -124 -37 -99 -60 -77 vhcurveto
          -35 33 -29 29 -19 20 rrcurveto
          40 -40 -110 97 -66 hhcurveto
          -47 -18 -37 -57 hvcurveto
          -30 vlineto
          79 -60 78 -76 69 -79 rrcurveto
          -57 -99 -117 -28 -121 hhcurveto
          -268 -200 210 334 hvcurveto
          endchar
        </CharString>
        <CharString name="R">
          4 callsubr
          0 callsubr
          580 1 callgsubr
          hintmask 11010000
          236 139 -85 callgsubr
          hintmask 11100000
          -97 callsubr
          endchar
        </CharString>
        <CharString name="Racute">
          4 callsubr
          138 350 0 callsubr
          88 540 -48 1 callgsubr
          hintmask 11110100
          540 -89 callgsubr
          -304 -1381 -85 callgsubr
          hintmask 11101000
          -97 callsubr
          endchar
        </CharString>
        <CharString name="Rcaron">
          4 callsubr
          263 177 0 callsubr
          -119 957 -258 1 callgsubr
          hintmask 11010000
          617 -67 callsubr
          -381 -1368 -79 callgsubr
          hintmask 11100100
          -74 callgsubr
          hintmask 11101000
          -97 callsubr
          endchar
        </CharString>
        <CharString name="Rcommaaccent">
          65 -277 -21 1517 163 0 callsubr
          153 364 63 1 callgsubr
          hintmask 11110100
          236 139 -85 callgsubr
          hintmask 11111000
          -97 callsubr
          225 -1088 rmoveto
          -71 callgsubr
        </CharString>
        <CharString name="S">
          -70 -17 170 1058 173 hstemhm
          137 181 576 139 -65 183 hintmask 11101000
          213 218 rmoveto
          -209 237 -26 124 160 417 105 283 233 -235 66 -226 40 vhcurveto
          -183 32 -189 35 125 vvcurveto
          160 235 149 134 vhcurveto
          hintmask 11110000
          131 76 -34 -141 -32 1 -48 53 87 -2 120 66 125 -124 117 -192 -275 -305 -183 -312 -268 311 -50 252 -36 hvcurveto
          hintmask 11101000
          148 -35 120 -69 -63 vvcurveto
          -89 -202 -126 -165 -136 -48 9 160 -88 vhcurveto
          -51 67 -65 -129 -42 vvcurveto
          endchar
        </CharString>
        <CharString name="T">
          -100 1134 203 -150 162 hstemhm
          520 182 -134 219 hintmask 01010000
          568 158 rmoveto
          -91 7 -81 117 5 vhcurveto
          84 3 11 22 60 vvcurveto
          25 -27 86 -3 21 vhcurveto
          -19 136 0 129 -8 131 rrcurveto
          hintmask 01100000
          -17 137 -11 133 135 84 -1 41 21 vvcurveto
          22 vlineto
          8 39 144 2 27 32 41 -49 61 hhcurveto
          52 53 71 37 61 -42 64 -63 hvcurveto
          -66 -61 -22 -61 hhcurveto
          hintmask 10010000
          -213 -199 -12 -197 hhcurveto
          -75 -91 -26 -114 8 hvcurveto
          -43 3 34 -20 88 hhcurveto
          97 121 26 3 86 hvcurveto
          2 -211 rlineto
          3 -155 26 -139 -143 -91 22 -83 -85 -35 -4 -31 -32 vvcurveto
          endchar
        </CharString>
        <CharString name="Thorn">
          -57 266 180 512 174 hstem
          197 185 631 188 vstem
          198 130 rmoveto
          -99 27 -35 81 35 60 7 53 vhcurveto
          72 -15 93 51 vvcurveto
          34 -3 rlineto
          -3 19 23 0 17 hhcurveto
          229 289 96 84 87 hvcurveto
          24 24 93 89 218 vvcurveto
          233 -176 122 -351 -112 -91 -27 -21 -89 vhcurveto
          198 vlineto
          41 -35 50 -51 -65 -34 -62 -91 vhcurveto
          2 -973 rlineto
          -84 -1 -17 -16 vvcurveto
          184 349 rmoveto
          340 vlineto
          37 21 13 60 2 7 rrcurveto
          49 35 123 2 99 hhcurveto
          232 90 -77 -157 -72 -39 -59 -38 -44 hvcurveto
          -66 -58 -236 -37 -111 hhcurveto
          -53 -38 28 5 -58 hvcurveto
          endchar
        </CharString>
        <CharString name="U">
          47 -31 166 hstem
          7 callgsubr
          650 185 vstem
          616 -31 -77 callgsubr
        </CharString>
        <CharString name="Uacute">
          -6 callsubr
          350 hstemhm
          7 callgsubr
          133 540 -23 185 hintmask 11110000
          578 -53 callgsubr
          38 -1551 -78 callgsubr
        </CharString>
        <CharString name="Ucircumflex">
          -6 callsubr
          177 hstemhm
          7 callgsubr
          -135 957 -172 185 hintmask 11010000
          311 -103 callsubr
          305 -1563 -78 callgsubr
        </CharString>
        <CharString name="Udieresis">
          47 -31 166 1384 245 hstemhm
          7 callgsubr
          -15 233 432 185 hintmask 11011000
          490 -94 callsubr
          -353 -1550 -59 callgsubr
          -90 callsubr
          hintmask 11101000
          -93 callsubr
        </CharString>
        <CharString name="Ugrave">
          -6 callsubr
          347 hstem
          7 callgsubr
          31 541 78 185 vstem
          851 -92 callsubr
          -235 -1551 -77 callgsubr
        </CharString>
        <CharString name="V">
          45 -4 1371 hstem
          115 1246 vstem
          517 -4 rmoveto
          169 -39 32 97 52 hvcurveto
          79 144 470 795 88 127 rrcurveto
          8 14 17 44 25 vvcurveto
          65 -43 28 -19 -60 -28 -26 -45 -29 vhcurveto
          -189 -285 -159 -314 -179 -289 rrcurveto
          -41 -22 -32 -105 -22 hhcurveto
          -14 -12 75 17 -3 hvcurveto
          -80 179 -126 419 -56 250 rrcurveto
          46 -11 -52 25 -35 hhcurveto
          -78 3 -75 -33 -173 363 -996 39 hvcurveto
          endchar
        </CharString>
        <CharString name="W">
          432 -26 1547 hstem
          105 1623 vstem
          387 73 rmoveto
          -64 11 35 -35 79 hhcurveto
          49 87 180 38 13 hvcurveto
          -2 vlineto
          32 114 123 364 56 159 43 -267 87 -264 45 -225 rrcurveto
          -53 11 52 -23 39 hhcurveto
          135 58 265 112 24 hvcurveto
          160 688 48 106 79 115 rrcurveto
          45 67 30 31 33 vvcurveto
          47 -41 62 -59 -99 -36 -135 -65 -16 vhcurveto
          -24 -43 -56 -133 -45 -136 -91 -272 -31 -234 -61 -150 -72 221 -29 174 -38 249 rrcurveto
          153 -23 -46 76 -47 hhcurveto
          -50 -30 -59 -124 -59 hvcurveto
          -88 -185 -92 -307 -40 -119 -28 -86 rcurveline
          -15 19 -1 54 -11 47 -105 454 -41 78 -44 218 rrcurveto
          93 -19 -6 107 -88 hhcurveto
          -53 -39 -70 -34 -52 27 -88 16 -61 hvcurveto
          101 -365 77 -312 61 -361 rrcurveto
          endchar
        </CharString>
        <CharString name="X">
          -294 -50 1573 hstemhm
          115 865 -609 213 hintmask 10100000
          138 157 rmoveto
          -75 46 -65 80 108 -28 86 71 13 vhcurveto
          13 66 73 142 37 77 21 -39 38 -80 68 -125 rrcurveto
          -166 89 57 -99 148 hhcurveto
          45 23 22 45 124 -73 -5 -59 84 hvcurveto
          -68 92 -185 330 55 vvcurveto
          24 206 358 36 48 vhcurveto
          hintmask 11000000
          13 21 141 261 26 vvcurveto
          39 -32 49 -44 -65 -64 -107 -84 -43 vhcurveto
          -95 -185 -68 -119 -80 -144 rrcurveto
          165 -109 -73 285 -118 hhcurveto
          -43 -31 -58 -37 -35 15 -40 17 -35 hvcurveto
          hintmask 10100000
          96 -197 128 -166 -91 vvcurveto
          -13 -35 -34 -90 -14 -24 rrcurveto
          -39 -71 -133 -271 -27 vvcurveto
          endchar
        </CharString>
        <CharString name="Y">
          -5 callgsubr
          hstem
          58 1131 vstem
          297 -17 -55 callsubr
          -88 callsubr
        </CharString>
        <CharString name="Yacute">
          -5 callgsubr
          139 350 hstemhm
          58 1131 -803 540 hintmask 11010000
          470 1520 rmoveto
          127 301 165 38 13 -67 callgsubr
          -59 -173 -115 -23 -39 -73 callgsubr
          -173 -1537 -76 callgsubr
        </CharString>
        <CharString name="Ydieresis">
          -5 callgsubr
          138 245 hstemhm
          58 1131 -951 233 hintmask 11010000
          382 -94 callsubr
          -564 -1536 -76 callgsubr
        </CharString>
        <CharString name="Z">
          12 6 183 984 180 hstem
          102 1210 vstem
          187 99 rmoveto
          -41 13 -34 59 -5 vhcurveto
          -11 139 42 -2 46 203 261 28 95 55 52 -24 63 hhcurveto
          65 32 77 51 51 -24 45 -76 -35 -31 -20 -11 -19 hvcurveto
          -28 -15 -43 -6 -33 1 -608 12 rcurveline
          22 65 97 154 38 54 rrcurveto
          100 137 397 552 101 vvcurveto
          37 -9 42 -40 5 vhcurveto
          9 -104 -96 3 -91 -104 -95 -4 -91 -82 -68 14 -80 hhcurveto
          -54 -53 -25 -58 -72 54 -47 73 59 210 24 -8 163 hvcurveto
          160 -9 -160 -302 -200 -227 -168 -259 rlinecurve
          -63 -96 -43 -87 -99 vvcurveto
          endchar
        </CharString>
        <CharString name="a">
          -65 callgsubr
          -22 callgsubr
          749 -31 callgsubr
          hintmask 10111000
          133 426 -72 callgsubr
          hintmask 01111000
          -92 callgsubr
          hintmask 01110100
          -102 callsubr
          hintmask 01111000
          -83 callgsubr
        </CharString>
        <CharString name="aacute">
          -65 callgsubr
          167 466 -22 callgsubr
          265 447 37 -31 callgsubr
          hintmask 10111110
          656 -95 callsubr
          -523 -838 -101 callsubr
        </CharString>
        <CharString name="acircumflex">
          -65 callgsubr
          153 -16 callsubr
          133 187 -24 918 -145 -31 callgsubr
          hintmask 0110101000000000
          426 -101 callgsubr
          hintmask 1011010100000000
          -293 -843 -72 callgsubr
          hintmask 0111001000000000
          -88 callgsubr
          hintmask 0111010100000000
          -61 callgsubr
          hintmask 0111010010000000
          -102 callsubr
          hintmask 0111010100000000
          -83 callgsubr
        </CharString>
        <CharString name="acute">
          -527 1192 466 hstem
          165 447 vstem
          236 1192 -96 callsubr
          endchar
        </CharString>
        <CharString name="acute.cap">
          -527 1479 350 hstem
          113 540 vstem
          197 1479 -81 callsubr
          -59 -173 -115 -23 -39 -73 callgsubr
          endchar
        </CharString>
        <CharString name="adieresis">
          -65 callgsubr
          169 245 -22 callgsubr
          80 233 436 -31 callgsubr
          hintmask 10111110
          544 -94 callgsubr
          -890 -840 -101 callsubr
        </CharString>
        <CharString name="ae">
          918 -24 158 -120 159 358 158 248 162 -129 165 hstemhm
          133 172 756 134 7 22 hintmask 10101111
          133 325 rmoveto
          -196 170 -153 279 323 174 139 117 77 vhcurveto
          hintmask 01101111
          -133 98 168 -85 173 hhcurveto
          -56 callgsubr
          hvcurveto
          -93 callgsubr
          -264 -178 -103 -177 -92 vhcurveto
          hintmask 01110111
          157 -85 -173 87 -209 hhcurveto
          -161 -336 -24 -125 -69 34 -26 76 35 36 17 15 25 hvcurveto
          13 7 6 3 12 4 rrcurveto
          8 36 82 28 97 hhcurveto
          155 261 -19 -321 hvcurveto
          -8 vlineto
          67 -92 -135 33 -177 hhcurveto
          -368 -133 -133 -231 hvcurveto
          1095 266 rmoveto
          hintmask 10101111
          -82 callgsubr
          -923 -262 rmoveto
          143 127 59 208 169 225 -38 -148 4 vhcurveto
          -92 -49 -152 -119 -223 hhcurveto
          -212 -97 102 93 hvcurveto
          endchar
        </CharString>
        <CharString name="agrave">
          -65 callgsubr
          169 465 -22 callgsubr
          164 448 137 -31 callgsubr
          hintmask 10111110
          865 -83 callsubr
          -732 -840 -101 callsubr
        </CharString>
        <CharString name="ampersand">
          -11 -4 172 hstem
          210 174 vstem
          210 274 rmoveto
          -135 28 -143 208 111 98 53 54 97 vhcurveto
          110 -105 rlineto
          -23 23 32 -5 15 hhcurveto
          44 31 13 69 56 -37 29 -29 35 hvcurveto
          -30 33 88 88 63 56 80 126 rlinecurve
          8 11 22 45 26 vvcurveto
          55 -19 65 -77 -100 -24 -206 -31 -35 vhcurveto
          -128 -117 -38 -11 -176 354 -4 101 rlinecurve
          26 64 rlineto
          15 41 26 51 51 vvcurveto
          57 -26 93 -84 -121 -62 -124 -104 vhcurveto
          -40 23 -51 -28 vvcurveto
          -31 -32 -39 -8 -24 vhcurveto
          -59 -136 -59 -127 -146 vvcurveto
          174 13 rmoveto
          115 48 117 25 46 vhcurveto
          59 -107 73 -138 66 -82 rrcurveto
          -32 -24 -130 -38 -32 hhcurveto
          -48 -37 49 70 hvcurveto
          endchar
        </CharString>
        <CharString name="apple">
          407 92 62 66 71 -63 68 168 74 -16 73 -69 72 47 73 -39 58 -4 73 -34 60 -9 70 161 73 -71 39 112 66 hstemhm
          288 79 101 75 -71 78 26 72 -68 74 135 73 0 72 -47 72 53 77 11 74 -58 78 195 78 hintmask 10101010101101110101011011000000
          288 699 rmoveto
          -265 115 -342 489 340 235 211 349 386 -211 235 -349 -304 -315 -141 -433 vhcurveto
          79 31 rmoveto
          334 245 143 331 261 185 -210 -322 -345 -192 -176 -324 -346 -160 252 324 vhcurveto
          569 -155 rmoveto
          19 26 9 23 hvcurveto
          67 -20 98 34 vvcurveto
          15 vlineto
          15 17 -2 15 hhcurveto
          120 66 60 113 75 -65 60 -117 -40 -61 -16 -50 -24 hvcurveto
          -202 vlineto
          -8 2 -9 -3 vvcurveto
          -3 -33 1 -24 -21 vvcurveto
          -168 13 -18 36 vhcurveto
          -307 115 rmoveto
          -45 55 0 18 141 21 76 104 vhcurveto
          16 -2 16 12 vvcurveto
          228 vlineto
          19 -19 11 -15 vhcurveto
          hintmask 10101010101011110101011011000000
          -11 -28 -9 -23 hvcurveto
          -28 vlineto
          -3 -47 2 -12 -3 -56 rrcurveto
          -18 -13 -31 -41 -37 hhcurveto
          -48 -8 56 28 28 3 20 4 13 hvcurveto
          2 7 2 6 3 5 rrcurveto
          27 -14 12 -19 -52 -1 -74 -51 -60 16 -87 119 35 26 9 19 17 vhcurveto
          -28 vlineto
          -35 -1 -33 -11 -13 vhcurveto
          -20 -20 -25 -4 -31 hhcurveto
          -19 hlineto
          -8 -7 2 -8 hhcurveto
          -16 -14 -5 -25 hvcurveto
          332 197 rmoveto
          -1 12 0 11 10 vvcurveto
          -1 17 0 19 8 vvcurveto
          70 vlineto
          hintmask 10100110101101110101011011000000
          13 8 33 7 12 hhcurveto
          64 40 -20 -51 hvcurveto
          -106 -155 12 -2 vvcurveto
          -366 -361 rmoveto
          53 94 36 28 17 -16 18 -15 -11 -16 -8 -3 -4 hvcurveto
          1 hlineto
          -3 -11 -64 -13 -12 hhcurveto
          -51 0 85 52 hvcurveto
          158 -2 rlineto
          13 24 13 23 23 -29 14 -31 hvcurveto
          -135 hlineto
          4 15 rlineto
          hintmask 10101010101101101101011011000000
          3 11 0 6 31 vvcurveto
          20 -21 15 -12 -44 2 -50 -37 -3 vhcurveto
          -11 -33 vlineto
          -23 -1 -13 -14 -21 vvcurveto
          -27 30 -10 10 vhcurveto
          hintmask 10100110101101110101011011000000
          25 -6 hlineto
          -85 4 -116 123 vhcurveto
          417 136 rmoveto
          hintmask 10101001010101110011011101000000
          -82 77 -58 80 28 131 5 44 26 -14 13 -28 -15 -11 -8 -7 -11 vhcurveto
          -53 hlineto
          -32 -75 -1 75 hvcurveto
          6 vlineto
          1 -1 2 -1 1 vhcurveto
          175 hlineto
          3 7 -2 7 hhcurveto
          13 27 6 37 85 -99 27 -64 -92 -52 -98 -72 hvcurveto
          88 75 rmoveto
          3 5 23 23 6 2 rrcurveto
          3 11 6 2 11 hhcurveto
          54 21 -27 -8 19 hvcurveto
          -674 -386 rmoveto
          -96 69 -27 83 vhcurveto
          28 17 3 25 hhcurveto
          22 hlineto
          12 28 18 19 33 -28 12 -14 hvcurveto
          -11 -28 -22 -6 -15 hhcurveto
          -11 hlineto
          -55 -37 14 55 49 36 49 52 20 19 -5 -15 8 hvcurveto
          -43 13 9 -16 9 hhcurveto
          17 14 50 16 51 -63 39 -35 -115 -58 -85 -104 hvcurveto
          282 28 rmoveto
          hintmask 11010001010101110100101101000000
          -71 72 -88 83 83 74 62 91 100 -58 65 -92 -84 -78 -43 -116 vhcurveto
          72 3 rmoveto
          56 50 26 49 39 28 -34 -51 -56 -41 -32 -43 -43 -39 47 44 vhcurveto
          -142 56 rmoveto
          -1 1 -1 2 1 vvcurveto
          endchar
        </CharString>
        <CharString name="aring">
          -65 callgsubr
          101 -9 callsubr
          -22 callgsubr
          216 -8 callgsubr
          65 -31 callgsubr
          hintmask 1011111110000000
          770 1198 -80 callsubr
          -659 -919 -72 callgsubr
          hintmask 0111111110000000
          -92 callgsubr
          hintmask 0111111101000000
          -102 callsubr
          hintmask 0111111110000000
          -83 callgsubr
        </CharString>
        <CharString name="asciicircum">
          -85 370 947 hstem
          125 1014 vstem
          187 370 rmoveto
          17 74 6 37 21 hvcurveto
          168 323 54 123 13 31 16 50 21 64 21 26 130 -106 115 -346 88 -133 7 -9 9 -7 9 -7 rrcurveto
          -12 16 24 -11 31 hhcurveto
          79 39 40 81 35 -62 17 -48 111 hvcurveto
          -56 109 -92 142 -77 117 -45 68 -47 68 -48 69 rrcurveto
          29 -27 -41 32 -48 hhcurveto
          -77 -21 -31 -68 -11 hvcurveto
          -29 -158 -113 -259 -80 -155 rrcurveto
          -56 -99 -36 -30 -40 vvcurveto
          -57 30 -50 32 vhcurveto
          endchar
        </CharString>
        <CharString name="asciitilde">
          -39 530 194 -51 193 hstemhm
          182 945 hintmask 01100000
          251 540 rmoveto
          86 33 133 102 hhcurveto
          hintmask 10100000
          112 38 -143 180 hhcurveto
          62 169 22 48 67 hvcurveto
          25 19 2 26 19 vvcurveto
          37 7 66 -77 vhcurveto
          -80 -62 -43 -91 hhcurveto
          hintmask 01100000
          -115 -47 142 -112 hhcurveto
          -135 -233 -64 -192 -47 23 -23 46 hvcurveto
          endchar
        </CharString>
        <CharString name="asterisk">
          -132 473 941 -671 224 hstemhm
          104 957 hintmask 10100000
          477 473 rmoveto
          81 -9 76 308 88 hvcurveto
          11 -3 57 -16 24 -11 rrcurveto
          hintmask 01100000
          -61 117 51 -23 53 hhcurveto
          66 28 60 54 40 -26 70 -55 hvcurveto
          -27 -33 -9 -20 hhcurveto
          -117 28 225 81 rlineto
          32 11 38 16 43 vvcurveto
          72 -61 42 -23 -17 -16 -5 -9 -17 vhcurveto
          -221 -126 rlineto
          43 145 40 67 26 vvcurveto
          hintmask 10100000
          42 -66 23 -37 -132 5 -203 -128 -36 vhcurveto
          -11 3 -72 25 -66 48 rrcurveto
          43 -61 -36 20 -64 hhcurveto
          -45 -64 -25 -68 -35 12 -34 39 -12 hvcurveto
          246 -80 -88 -40 -130 -31 -24 -11 rlinecurve
          3 1 rlineto
          -32 -11 -13 -32 -32 vvcurveto
          -43 29 -63 69 13 13 3 7 13 vhcurveto
          206 117 rlineto
          -42 -82 -76 -140 -18 vvcurveto
          -76 67 -44 68 vhcurveto
          endchar
        </CharString>
        <CharString name="at">
          597 -262 146 211 157 -123 163 398 161 237 156 hstemhm
          162 178 323 180 304 186 233 166 hintmask 1101111110000000
          162 457 rmoveto
          -643 493 -76 388 176 535 85 106 47 -45 29 -24 -47 -56 -38 -5 -27 vhcurveto
          -32 -157 -186 -46 -148 hhcurveto
          -480 -244 155 404 416 354 229 357 287 228 -228 -283 -163 -20 -162 -112 -48 -38 30 18 -18 hvcurveto
          3 152 rlineto
          180 -89 219 -227 -208 -146 -201 -205 vhcurveto
          hintmask 1011111110000000
          -184 76 -132 205 82 101 64 26 34 vhcurveto
          hintmask 1101111110000000
          -91 60 74 -33 108 hhcurveto
          280 49 235 241 387 -306 286 -364 -472 -428 -294 -493 hvcurveto
          681 -37 rmoveto
          120 58 150 128 53 65 -73 -64 vhcurveto
          hintmask 1011111110000000
          -173 -56 -88 -170 -56 -22 83 45 vhcurveto
          endchar
        </CharString>
        <CharString name="atilde">
          -65 callgsubr
          168 -43 callgsubr
          133 187 51 799 -101 -31 callgsubr
          hintmask 0110110100000000
          436 -29 callsubr
          hintmask 0111011000000000
          -91 callsubr
          hintmask 1010111000000000
          -84 callgsubr
          -303 -866 -72 callgsubr
          hintmask 0110110100000000
          -92 callgsubr
          hintmask 0110110010000000
          -102 callsubr
          hintmask 0110110100000000
          -83 callgsubr
        </CharString>
        <CharString name="b">
          -7 -15 171 742 175 hstem
          184 187 646 192 vstem
          188 112 rmoveto
          -63 3 27 -67 70 hhcurveto
          40 31 16 24 17 hvcurveto
          -23 64 75 -14 69 hhcurveto
          228 397 135 424 361 -180 168 -341 -137 -106 -48 -68 -80 hvcurveto
          131 10 100 -3 133 vhcurveto
          -2 95 rlineto
          37 -57 25 -35 -73 -21 -32 -55 vhcurveto
          -10 -2 -68 -24 vvcurveto
          3 -165 4 -260 -9 -612 8 -140 rlinecurve
          202 69 rmoveto
          -12 37 -4 54 41 vvcurveto
          1 70 -13 375 15 9 rrcurveto
          75 48 136 56 96 hhcurveto
          150 202 -67 -195 8 hvcurveto
          -93 -1 -118 -51 -75 vhcurveto
          -75 -126 -169 -63 -139 -5 -64 -3 -89 7 -39 21 rrcurveto
          endchar
        </CharString>
        <CharString name="backslash">
          11 callgsubr
          80 704 vstem
          569 -85 rmoveto
          -52 16 8 -78 64 hhcurveto
          45 82 21 60 2 -1 1 -16 65 hvcurveto
          -120 456 -198 713 -172 461 rrcurveto
          42 -16 -39 66 -57 hhcurveto
          -51 -34 -31 -60 -11 1 -8 4 -11 hvcurveto
          88 -204 115 -323 59 -218 95 -366 108 -468 19 -57 rrcurveto
          endchar
        </CharString>
        <CharString name="bar">
          -463 -514 2166 hstemhm
          345 184 -170 203 hintmask 10100000
          359 -397 rmoveto
          -88 4 48 -29 81 hhcurveto
          41 39 35 65 hvcurveto
          hintmask 11000000
          133 -43 589 207 vvcurveto
          hintmask 10100000
          336 33 630 74 vvcurveto
          56 -21 41 -57 -59 -34 -73 -16 -3 vhcurveto
          hintmask 11000000
          -32 -159 -11 -707 -144 vvcurveto
          hintmask 10100000
          -172 9 -640 5 -138 vhcurveto
          endchar
        </CharString>
        <CharString name="braceleft">
          -447 -192 1675 hstemhm
          342 198 -195 193 -149 192 -174 187 hintmask 11000000
          342 -15 rmoveto
          -125 82 -52 204 48 61 25 55 61 -44 12 -66 8 vhcurveto
          -68 8 -19 5 82 vvcurveto
          hintmask 10001000
          80 54 154 111 vvcurveto
          132 -121 34 -120 80 vhcurveto
          hintmask 10010000
          67 59 161 59 103 vvcurveto
          hintmask 10100000
          108 -43 215 62 vvcurveto
          19 1 26 39 8 vhcurveto
          69 16 87 -6 89 vvcurveto
          52 -58 18 -59 -181 -91 -95 -118 vhcurveto
          hintmask 10010000
          -78 44 -139 -91 vvcurveto
          -110 -72 12 -112 -112 vhcurveto
          -23 -23 -43 -24 -88 vvcurveto
          -69 94 -9 27 19 vhcurveto
          hintmask 10001000
          64 -37 83 -42 -70 vvcurveto
          hintmask 11000000
          -154 -65 -179 -91 vvcurveto
          endchar
        </CharString>
        <CharString name="braceright">
          -460 1324 159 hstemhm
          290 192 -148 166 -149 193 -180 188 hintmask 10001000
          167 -130 rmoveto
          -55 46 -7 48 204 87 65 127 vhcurveto
          hintmask 11000000
          92 -70 163 154 162 274 -38 159 vvcurveto
          69 -33 18 -34 11 vhcurveto
          hintmask 10100000
          -122 34 -67 30 108 vvcurveto
          hintmask 10010000
          91 44 139 78 vvcurveto
          118 -91 95 -181 -59 -58 -18 -52 -89 69 -9 73 14 vhcurveto
          39 -8 15 -43 -17 vvcurveto
          hintmask 10100000
          -61 -17 -186 -107 vvcurveto
          -102 134 -77 91 -11 vhcurveto
          hintmask 11000000
          -154 -69 -115 -80 -131 vvcurveto
          hintmask 10001000
          -112 74 -199 -80 vvcurveto
          -82 -19 -5 -68 -8 vhcurveto
          -66 -8 -44 -12 -61 vvcurveto
          endchar
        </CharString>
        <CharString name="bracketleft">
          -585 -194 193 1293 191 hstem
          212 184 vstem
          210 25 -7 callsubr
          hhcurveto
          168 hlineto
          48 54 36 56 87 -75 14 -114 hvcurveto
          -11 279 2 730 5 284 rrcurveto
          41 hlineto
          56 103 10 89 -3 hvcurveto
          52 -3 -55 40 -59 -49 -37 -7 -40 hhcurveto
          -115 -23 -34 -75 -5 hvcurveto
          -3 -166 8 -300 -5 -162 -8 -188 14 -359 -8 -167 rrcurveto
          endchar
        </CharString>
        <CharString name="bracketright">
          -595 -194 191 1293 193 hstem
          358 184 vstem
          156 -102 rmoveto
          -52 3 56 -40 58 49 37 7 40 9 callgsubr
          165 -8 302 4 161 8 188 -18 359 12 167 rrcurveto
          3 37 -2 39 51 vvcurveto
          75 -3 -63 17 -49 hhcurveto
          -168 hlineto
          -48 -54 -36 -56 -87 74 -14 115 hvcurveto
          11 -279 -2 -730 -5 -284 rrcurveto
          -41 hlineto
          -56 -103 -10 -89 3 hvcurveto
          endchar
        </CharString>
        <CharString name="breve">
          -426 1244 167 hstem
          614 191 vstem
          455 1244 rmoveto
          204 146 96 163 67 -56 28 -43 -35 -57 -13 -68 -75 -97 -31 -84 -100 -54 34 84 -3 hvcurveto
          45 -3 -2 48 -81 hhcurveto
          -40 -57 -17 -84 -232 176 -45 186 hvcurveto
          endchar
        </CharString>
        <CharString name="brokenbar">
          -463 -510 2160 hstemhm
          356 193 -192 199 -185 195 -180 196 hintmask 10100000
          477 681 rmoveto
          40 39 32 57 hvcurveto
          116 -13 174 93 vvcurveto
          hintmask 10010000
          115 23 177 122 vvcurveto
          47 -29 36 -56 vhcurveto
          hintmask 10001000
          -58 -34 -61 -20 -3 hvcurveto
          hintmask 10100000
          -20 -117 -9 -143 -128 -334 -2 -72 -11 vvcurveto
          -53 46 -30 76 vhcurveto
          hintmask 11000000
          -121 -568 rmoveto
          hintmask 10010000
          -440 15 -88 -12 vvcurveto
          -53 51 -30 81 vhcurveto
          hintmask 10001000
          40 39 32 57 hvcurveto
          115 -38 170 92 vvcurveto
          hintmask 11000000
          116 5 181 123 vvcurveto
          47 -21 36 -56 -58 -34 -61 -20 -3 vhcurveto
          -17 -83 -4 -90 -92 vvcurveto
          endchar
        </CharString>
        <CharString name="bullet">
          -540 296 559 hstem
          170 469 vstem
          404 296 rmoveto
          143 92 163 125 163 -84 -17 -80 27 hvcurveto
          53 -1 -34 45 -56 hhcurveto
          -135 -79 -249 -74 -145 78 -91 156 hvcurveto
          endchar
        </CharString>
        <CharString name="c">
          -96 -14 171 748 185 hstem
          133 184 vstem
          133 420 rmoveto
          -336 247 -98 286 vhcurveto
          96 86 12 93 -68 callsubr
        </CharString>
        <CharString name="caron">
          -52 1240 438 hstemhm
          193 926 vstemhm
          602 -40 callgsubr
          hintmask 11000000
          -60 callgsubr
          endchar
        </CharString>
        <CharString name="caron.cap">
          -52 1645 12 callgsubr
          503 -67 callsubr
          endchar
        </CharString>
        <CharString name="ccedilla">
          -96 -23 callsubr
          261 171 748 185 hstemhm
          133 184 450 163 hintmask 10111110
          133 420 rmoveto
          -280 172 -116 224 -29 vhcurveto
          -9 -71 -18 -56 -68 -3 callgsubr
          hintmask 11011110
          -75 callsubr
          7 32 4 50 3 40 rrcurveto
          1 91 82 11 89 -68 callsubr
        </CharString>
        <CharString name="cedilla">
          -692 -23 callsubr
          hstemhm
          406 163 hintmask 10110000
          170 14 rmoveto
          -8 -81 -21 -59 -74 -3 callgsubr
          hintmask 11010000
          -75 callsubr
          8 40 7 66 42 vvcurveto
          9 -37 9 -39 -35 -38 -9 -7 vhcurveto
          endchar
        </CharString>
        <CharString name="cent">
          -8 163 168 745 172 hstemhm
          180 181 252 180 -168 210 hintmask 11101000
          180 590 rmoveto
          -296 196 -109 243 -19 vhcurveto
          3 -72 0 -57 3 -31 rrcurveto
          -68 5 49 -27 77 hhcurveto
          43 36 34 49 32 -4 66 -7 79 hvcurveto
          7 61 69 7 97 hhcurveto
          40 70 53 45 85 -80 31 -32 -23 -20 -17 -21 -47 hvcurveto
          -27 -40 -33 -3 -35 hhcurveto
          -39 hlineto
          hintmask 11110000
          -11 125 -8 128 73 vvcurveto
          126 8 154 11 132 vhcurveto
          68 -13 56 -36 27 -72 rrcurveto
          -47 19 31 -18 33 hhcurveto
          44 40 41 37 143 -187 115 -117 24 hvcurveto
          5 60 3 44 19 vvcurveto
          43 -33 35 -52 -57 -33 -57 -13 -3 vhcurveto
          -8 -31 -7 -51 -5 -60 rrcurveto
          -297 -67 -159 -263 -312 vvcurveto
          436 -246 rmoveto
          -158 27 -97 71 204 vvcurveto
          174 97 176 166 59 vhcurveto
          -8 -152 -3 -158 -58 vvcurveto
          -64 0 -141 3 -138 vhcurveto
          endchar
        </CharString>
        <CharString name="circumflex">
          -52 1171 -32 callsubr
          hstem
          188 918 vstem
          318 1190 -103 callgsubr
          endchar
        </CharString>
        <CharString name="circumflex.cap">
          -52 1479 12 callgsubr
          220 1491 -105 callgsubr
          endchar
        </CharString>
        <CharString name="colon">
          -769 54 265 -265 832 hstemhm
          162 249 hintmask 01100000
          312 610 -21 callgsubr
          -150 -430 10 callsubr
          vhcurveto
          hintmask 10100000
          0 callgsubr
        </CharString>
        <CharString name="comma">
          -702 -290 -21 hstem
          50 467 vstem
          50 -222 rmoveto
          -53 45 -36 47 103 70 203 73 57 vhcurveto
          24 32 7 2 21 27 rrcurveto
          42 48 51 45 67 vvcurveto
          19 -8 50 -55 -47 -20 -16 -11 -15 vhcurveto
          -98 -83 -224 -298 -69 vvcurveto
          endchar
        </CharString>
        <CharString name="commaaccent">
          -593 -327 -21 hstem
          95 364 vstem
          330 -125 rmoveto
          -124 -39 -107 -116 8 hvcurveto
          -73 callsubr
          vhcurveto
          endchar
        </CharString>
        <CharString name="copyright">
          411 -26 141 141 159 546 167 132 138 hstem
          144 155 185 165 350 156 238 161 vstem
          144 -11 callgsubr
          275 403 -46 callsubr
          -363 -260 -203 -2 callgsubr
          185 -122 rmoveto
          -281 202 -63 190 107 123 24 51 64 vhcurveto
          7 9 6 8 5 8 rrcurveto
          9 15 9 16 13 vvcurveto
          43 -36 43 -48 -36 -14 -23 -14 -19 vhcurveto
          -40 -56 -79 6 -53 hhcurveto
          -108 -108 69 112 96 46 269 166 39 99 -29 -31 -60 0 -72 78 67 11 69 34 163 -156 93 -144 -163 -110 -134 -109 -40 hvcurveto
          -29 -84 -29 -112 -89 vvcurveto
          endchar
        </CharString>
        <CharString name="currency">
          198 107 165 792 168 hstem
          237 173 768 2 callgsubr
          100 121 rmoveto
          -53 37 -33 51 11 11 1 3 10 vhcurveto
          31 8 126 105 80 91 rrcurveto
          -83 97 121 -53 129 hhcurveto
          113 111 34 64 92 hvcurveto
          -93 74 114 -108 45 hhcurveto
          59 5 31 16 63 vvcurveto
          7 0 6 -1 8 vhcurveto
          -3 28 -95 122 -84 87 rrcurveto
          57 83 34 99 113 vvcurveto
          152 -35 127 -65 97 vhcurveto
          4 7 4 6 7 7 12 12 160 130 4 11 rrcurveto
          3 15 2 13 13 vvcurveto
          55 -39 74 -55 -48 -126 -114 -85 -80 vhcurveto
          47 -80 -93 24 -111 hhcurveto
          -127 -124 -29 -68 -103 hvcurveto
          107 -96 -76 123 -78 hhcurveto
          -33 -49 -56 -36 -52 20 -24 21 -23 hvcurveto
          29 -35 50 -96 65 -62 rrcurveto
          -49 -83 -28 -102 -131 vvcurveto
          -87 30 -90 52 -84 vhcurveto
          -63 -55 -56 -82 -48 -45 rrcurveto
          -22 -22 -30 -22 -57 vvcurveto
          432 280 rmoveto
          -4 23 -13 17 -22 9 rrcurveto
          -51 73 -32 84 83 vvcurveto
          245 235 129 208 188 137 -164 -240 -245 -190 -143 -204 -92 -89 52 77 -71 vhcurveto
          endchar
        </CharString>
        <CharString name="d">
          97 -17 161 783 170 hstemhm
          133 189 749 193 -183 178 hintmask 11110000
          133 497 rmoveto
          -301 168 -213 341 159 177 32 86 70 vhcurveto
          -63 11 36 -57 50 hhcurveto
          77 27 47 101 128 2 136 5 137 hvcurveto
          3 133 5 133 121 vvcurveto
          148 -4 101 -3 60 vhcurveto
          hintmask 11101000
          31 2 93 23 vvcurveto
          51 -16 52 -59 -69 -34 -34 -67 vhcurveto
          -372 vlineto
          -8 -1 -42 -3 -13 vhcurveto
          -64 72 -130 82 -123 3 rrcurveto
          -404 4 -223 -299 -305 vvcurveto
          189 -2 rmoveto
          248 155 184 281 vhcurveto
          hintmask 11110000
          159 154 -161 -179 -109 2 -71 -16 -86 hvcurveto
          -61 -16 -109 -116 -260 hhcurveto
          -189 -161 135 216 hvcurveto
          endchar
        </CharString>
        <CharString name="dagger">
          -15 750 -20 callsubr
          hintmask 10100000
          288 750 rmoveto
          265 -3 rlineto
          hintmask 10010000
          4 -394 73 -663 -65 -270 rrcurveto
          hintmask 10001000
          93 150 189 159 hvcurveto
          hintmask 10100000
          195 -54 542 245 -21 callsubr
          hintmask 11000000
          -11 callsubr
          hintmask 10010000
          -6 callgsubr
          hintmask 11000000
          -40 callsubr
          endchar
        </CharString>
        <CharString name="daggerdbl">
          -15 362 170 218 -20 callsubr
          hintmask 11001000
          359 338 rmoveto
          92 49 11 8 69 hvcurveto
          19 -352 22 -393 -45 -192 rrcurveto
          hintmask 11000100
          93 150 189 159 118 -20 244 -16 229 hvcurveto
          -3 57 61 -2 27 hhcurveto
          92 71 24 87 63 -69 21 -141 -32 -38 0 -3 -39 hvcurveto
          hintmask 11010000
          -4 79 -3 69 56 -21 callsubr
          hintmask 11100000
          -11 callsubr
          hintmask 11001000
          -6 callgsubr
          hintmask 11100000
          -40 callsubr
          hintmask 11010000
          265 -3 1 -64 3 -72 3 -76 rlinecurve
          -3 -68 -84 0 -51 hhcurveto
          -57 -31 -54 -37 -37 22 -66 68 hvcurveto
          endchar
        </CharString>
        <CharString name="degree">
          -559 760 158 302 146 hstem
          129 180 262 163 vstem
          431 760 rmoveto
          -48 callgsubr
          -184 101 -116 201 hvcurveto
          25 158 rmoveto
          -96 -51 48 96 64 51 94 45 49 117 -41 -60 -68 -55 -133 -60 hvcurveto
          endchar
        </CharString>
        <CharString name="dieresis">
          -90 1187 245 hstem
          237 233 vstem
          381 1187 -106 callsubr
          endchar
        </CharString>
        <CharString name="dieresis.cap">
          -90 1478 245 hstem
          233 233 vstem
          377 1478 -106 callsubr
          endchar
        </CharString>
        <CharString name="divide">
          -183 100 265 143 186 -156 178 hstemhm
          175 816 -546 249 hintmask 11001000
          597 885 -21 callgsubr
          -229 -377 rmoveto
          hintmask 10110000
          130 131 30 111 65 -7 callgsubr
          hintmask 11010000
          -126 -111 -22 -113 3 callsubr
          -92 165 -9 28 hvcurveto
          79 -282 10 callsubr
          0 callgsubr
        </CharString>
        <CharString name="dollar">
          65 -154 1680 -1436 168 hstemhm
          225 173 200 185 -157 168 -162 184 215 181 hintmask 10100110
          202 358 rmoveto
          -219 362 -24 57 -16 vhcurveto
          -187 vlineto
          -55 92 -11 8 21 74 23 43 vhcurveto
          hintmask 01100110
          178 vlineto
          127 8 269 13 235 vvcurveto
          215 -210 101 -202 34 vhcurveto
          hintmask 10101010
          -5 75 -1 174 177 vvcurveto
          -8 212 -105 -232 141 hhcurveto
          53 18 66 16 106 -51 117 -90 50 hvcurveto
          hintmask 10110010
          -30 16 -92 31 -67 8 rrcurveto
          144 vlineto
          59 -58 31 -24 -93 -10 -75 -87 vhcurveto
          -23 1 -21 -35 vvcurveto
          -87 -27 -52 -17 -43 -27 rrcurveto
          -109 -69 -83 -138 -133 vvcurveto
          -176 116 -75 287 -61 vhcurveto
          hintmask 10100110
          11 -191 -7 -13 -55 vvcurveto
          -23 -5 -12 -17 -71 -95 33 40 -51 vhcurveto
          75 -43 -20 43 -49 hhcurveto
          -38 -41 -64 -37 hvcurveto
          196 495 rmoveto
          131 104 113 108 13 vhcurveto
          hintmask 01101010
          19 -168 -3 -98 -62 -21 -2 -18 -11 vvcurveto
          -86 11 -140 48 62 vvcurveto
          hintmask 01100110
          418 -595 rmoveto
          284 vlineto
          100 -22 115 -54 -120 vvcurveto
          -69 -157 -19 -58 vhcurveto
          endchar
        </CharString>
        <CharString name="dotaccent">
          -49 callsubr
        </CharString>
        <CharString name="dotaccentcmb.cap">
          -49 callsubr
        </CharString>
        <CharString name="dotlessi">
          -15 callsubr
          hstemhm
          221 -25 callgsubr
          hintmask 10100000
          235 68 -65 callsubr
          hintmask 11000000
          -98 callgsubr
          hintmask 10100000
          -35 callgsubr
        </CharString>
        <CharString name="dotlessj">
          -723 -464 12 callsubr
          225 -17 -41 callsubr
          -60 callsubr
        </CharString>
        <CharString name="e">
          -33 callsubr
          15 callgsubr
          vstem
          107 475 -105 callsubr
        </CharString>
        <CharString name="eacute">
          -33 callsubr
          167 466 15 callgsubr
          236 447 vstem
          597 -95 callsubr
          -490 -789 -105 callsubr
        </CharString>
        <CharString name="ecircumflex">
          -33 callsubr
          153 -32 callsubr
          hstem
          237 918 -887 22 vstem
          367 -101 callgsubr
          -260 -794 -105 callsubr
        </CharString>
        <CharString name="edieresis">
          -33 callsubr
          169 245 15 callgsubr
          51 233 vstem
          485 -94 callgsubr
          -857 -791 -105 callsubr
        </CharString>
        <CharString name="egrave">
          -33 callsubr
          169 465 15 callgsubr
          135 448 vstem
          806 -83 callsubr
          -699 -791 -105 callsubr
        </CharString>
        <CharString name="eight">
          -154 -30 188 1036 183 hstemhm
          195 180 -99 194 208 192 38 172 hintmask 11101100
          195 238 rmoveto
          -225 166 -43 177 213 119 107 185 119 -91 208 -80 99 vhcurveto
          32 24 87 75 32 32 124 126 rcurveline
          64 27 42 44 72 vvcurveto
          125 -100 164 -147 vhcurveto
          hintmask 11011100
          -212 -345 -86 -280 -112 71 -91 70 -83 hvcurveto
          -23 -48 -27 -24 -32 vhcurveto
          2 2 rlineto
          hintmask 11101100
          -98 -119 -54 -126 -162 vvcurveto
          385 595 rmoveto
          hintmask 11011100
          -23 -87 139 28 120 191 74 109 51 87 0 -64 -16 -58 -35 -32 -32 hvcurveto
          -140 -143 rlineto
          -19 -19 -56 -52 -23 hhcurveto
          hintmask 11101100
          -205 -539 rmoveto
          68 90 215 82 53 78 -277 -53 -64 -87 -25 -76 -102 -38 27 109 vhcurveto
          endchar
        </CharString>
        <CharString name="ellipsis">
          391 -19 -4 callsubr
          300 280 300 280 cntrmask 01110000
          1310 90 rmoveto
          -69 callsubr
          -580 hmoveto
          -69 callsubr
          -580 hmoveto
          -69 callsubr
          endchar
        </CharString>
        <CharString name="emdash">
          675 522 179 hstem
          179 1639 vstem
          274 522 rmoveto
          1441 -4 rlineto
          52 51 0 92 77 -40 14 -49 hvcurveto
          -211 -1105 15 -152 hhcurveto
          -43 -39 -49 -51 -37 33 -57 62 hvcurveto
          endchar
        </CharString>
        <CharString name="endash">
          50 522 179 hstem
          179 1014 vstem
          275 522 rmoveto
          817 -4 rlineto
          51 50 0 92 77 -40 14 -48 hvcurveto
          -211 -526 15 -107 hhcurveto
          -43 -39 -49 -51 -37 32 -57 64 hvcurveto
          endchar
        </CharString>
        <CharString name="equal">
          -159 398 186 -168 190 163 188 -166 183 hstemhm
          211 768 hintmask 10101000
          286 769 rmoveto
          hintmask 10011000
          222 70 22 54 45 55 -15 45 hhcurveto
          92 55 7 107 63 -69 21 -141 -65 -68 -5 -4 -69 hvcurveto
          hintmask 10101000
          -7 -71 -67 -1 -75 hhcurveto
          -57 -31 -54 -37 -37 8 -60 67 hvcurveto
          -73 -270 rmoveto
          -92 165 -9 28 115 111 33 -3 112 vhcurveto
          hintmask 01011000
          49 -7 callgsubr
          hintmask 10011000
          -107 -94 -22 -99 3 callsubr
          hvcurveto
          endchar
        </CharString>
        <CharString name="eth">
          78 -4 178 637 178 372 158 hstem
          134 169 799 8 callgsubr
          134 492 rmoveto
          -312 284 -184 281 351 231 181 440 223 -114 301 -226 191 vhcurveto
          96 59 63 29 19 11 28 17 50 44 -16 64 -16 58 -80 -16 -26 -9 -11 -3 -11 -4 -69 -56 -39 -31 -28 -44 -53 -51 rrcurveto
          73 -117 -137 46 -164 hhcurveto
          -103 -35 -30 -61 -36 16 -31 127 97 87 -22 -36 79 hvcurveto
          -150 -60 -35 -19 -10 -49 8 -35 rlinecurve
          8 -35 44 -32 59 16 10 3 20 9 165 128 167 -130 99 -205 16 -161 rrcurveto
          163 -101 -203 93 -166 hhcurveto
          -293 -202 -199 -298 hvcurveto
          169 -6 rmoveto
          128 74 197 251 179 251 -133 -270 20 vhcurveto
          -136 -16 -150 -98 -171 hhcurveto
          -184 -254 85 227 hvcurveto
          endchar
        </CharString>
        <CharString name="exclam">
          -630 -32 267 -267 1523 hstemhm
          220 229 -166 215 hintmask 01010000
          364 382 rmoveto
          77 8 180 51 4 hvcurveto
          32 429 13 237 92 vvcurveto
          80 -28 40 -81 -59 -47 -59 -75 vhcurveto
          -105 29 -95 -96 vvcurveto
          -173 -22 -241 -3 -177 vhcurveto
          -45 24 -43 53 vhcurveto
          hintmask 10100000
          -144 -255 rmoveto
          -100 40 -59 104 77 8 60 39 80 -10 88 -95 -60 -64 -37 -71 vhcurveto
          endchar
        </CharString>
        <CharString name="exclamdown">
          -721 -86 1502 -264 264 hstemhm
          153 225 -176 229 hintmask 01010000
          308 1152 rmoveto
          61 62 34 71 101 -37 58 -107 -77 -8 -57 -39 -83 13 -85 93 hvcurveto
          hintmask 10100000
          -155 -1117 rmoveto
          -81 40 -40 80 59 46 60 72 49 -6 50 -7 48 vhcurveto
          -7 49 -10 56 47 vvcurveto
          97 8 114 7 113 vhcurveto
          7 96 4 91 80 vvcurveto
          44 -34 44 -53 -75 -21 -179 -52 vhcurveto
          -37 -430 -1 -237 -91 vvcurveto
          endchar
        </CharString>
        <CharString name="f">
          -235 869 162 349 171 hstem
          362 190 vstem
          10 callgsubr
          48 33 26 76 -12 vhcurveto
          -27 171 -8 48 52 56 4 55 60 vvcurveto
          127 1 111 3 100 vhcurveto
          -1 29 8 -2 8 203 76 -14 50 -28 callsubr
          hhcurveto
          -47 -51 -3 3 -107 hvcurveto
          181 13 40 168 223 128 7 -78 99 hhcurveto
          50 4 63 25 97 -223 64 -68 -223 -154 -117 -221 -57 -31 callsubr
          hvcurveto
          187 11 rlineto
          9 hlineto
          -229 -6 -235 -76 -93 20 -106 -23 vvcurveto
          endchar
        </CharString>
        <CharString name="fi">
          80 860 176 -163 157 245 184 -79 171 hstemhm
          356 192 -172 209 428 184 hintmask 10100110
          10 callgsubr
          41 30 18 55 9 1 9 -3 11 vhcurveto
          hintmask 10101010
          -27 171 -8 48 52 vvcurveto
          176 3 191 5 142 vhcurveto
          hintmask 01011010
          35 28 1 23 hhcurveto
          251 73 -10 -5 77 hvcurveto
          -19 -99 -11 -104 -100 -42 callsubr
          -63 callgsubr
          119 34 182 122 vvcurveto
          73 -38 31 -47 -29 -31 -2 -7 -27 vhcurveto
          -8 -90 -66 3 -126 hhcurveto
          -52 -66 1 1 -95 hvcurveto
          181 13 40 167 223 hhcurveto
          hintmask 10101010
          143 43 -105 105 hhcurveto
          36 141 85 68 55 -32 45 -67 -27 -31 -19 -38 -36 hvcurveto
          -15 -16 -12 0 -21 17 rrcurveto
          hintmask 10011010
          56 -69 -111 23 -50 hhcurveto
          -223 -154 -117 -221 -57 hvcurveto
          -5 -19 -17 -93 -11 -66 -204 4 rcurveline
          -52 -40 -43 -53 -43 39 -48 53 3 hvcurveto
          196 11 rlineto
          -229 -6 -235 -76 vvcurveto
          hintmask 10100110
          -93 20 -106 -23 vvcurveto
          endchar
        </CharString>
        <CharString name="five">
          21 -40 185 480 206 358 165 hstem
          926 197 vstem
          192 92 rmoveto
          -132 64 197 0 110 hhcurveto
          317 243 152 297 252 -219 170 -253 hvcurveto
          -74 -50 -21 -50 hhcurveto
          -7 -2 67 48 hvcurveto
          130 13 -33 155 vvcurveto
          13 487 -1 8 vhcurveto
          40 36 -34 70 hhcurveto
          43 53 26 53 60 -21 77 -84 hvcurveto
          -19 -1 -42 -8 -1 1 rrcurveto
          -8 -80 -82 -1 -84 -72 -71 1 -68 hhcurveto
          -72 -74 -2 -8 -76 hvcurveto
          -125 -59 56 -510 -28 -131 rrcurveto
          -1 -7 0 -4 -7 vvcurveto
          -83 95 5 67 vhcurveto
          20 14 21 13 23 11 rrcurveto
          19 39 52 19 56 hhcurveto
          206 73 -162 -60 -204 -167 -54 -239 hvcurveto
          -122 -68 75 -50 hhcurveto
          -61 -20 -83 -39 -10 1 -6 1 -2 hvcurveto
          endchar
        </CharString>
        <CharString name="fl">
          209 -5 166 694 180 267 176 -98 171 hstemhm
          362 190 510 176 hintmask 11011100
          376 104 rmoveto
          -91 16 14 -23 108 hhcurveto
          48 32 26 76 -11 hvcurveto
          -27 175 -4 96 171 vvcurveto
          125 1 109 3 100 vhcurveto
          -3 141 60 -10 43 -28 callsubr
          -20 -22 -1 -33 hhcurveto
          183 13 47 167 246 hhcurveto
          104 34 -43 -21 54 hvcurveto
          -8 -508 -5 -191 -17 -256 43 -184 rlinecurve
          -72 callsubr
          -38 25 49 -8 hvcurveto
          -27 146 7 135 143 vvcurveto
          734 vlineto
          hintmask 11101100
          37 -33 48 -51 -10 -10 -2 -3 -10 vhcurveto
          hintmask 11011100
          48 -78 -129 30 -50 hhcurveto
          -236 -168 -118 -220 -60 -31 callsubr
          56 68 6 4 72 hvcurveto
          -228 -6 -235 -76 vvcurveto
          -92 15 -107 5 -23 vhcurveto
          endchar
        </CharString>
        <CharString name="foundryicon">
          356 177 241 101 287 383 114 hstem
          295 136 401 42 425 123 vstem
          295 767 rmoveto
          -368 204 -222 336 294 293 152 412 255 -266 307 -305 -288 -268 -218 -318 vhcurveto
          171 -261 rmoveto
          16 30 46 21 -24 vhcurveto
          -44 39 21 -3 61 hhcurveto
          75 89 40 13 19 -55 15 -64 11 hvcurveto
          -113 13 -139 22 116 vvcurveto
          120 138 71 120 3 vhcurveto
          -7 15 -8 19 27 vvcurveto
          100 86 88 159 116 25 -83 -91 -45 -6 -47 -4 -39 vhcurveto
          1 71 68 3 72 hhcurveto
          24 14 -29 -15 -27 -24 -13 -17 1 hvcurveto
          -204 3 rlineto
          -1 -1 -1 -2 -2 vvcurveto
          -96 13 -188 95 21 18 5 10 13 vhcurveto
          7 7 13 5 7 hhcurveto
          23 4 -12 -19 -37 -64 -41 -39 -180 -17 227 143 -4 hvcurveto
          -11 -10 -2 -24 hhcurveto
          -14 -29 13 27 27 24 17 29 hvcurveto
          38 -2 rlineto
          5 vlineto
          43 15 63 51 vvcurveto
          49 -17 37 -64 -97 -59 -68 -68 -35 10 -25 23 -15 vhcurveto
          33 -21 23 -24 -31 vvcurveto
          -29 1 -55 -39 -24 0 22 15 47 -33 11 -60 -60 -103 -52 -56 -47 81 -14 83 -11 vhcurveto
          101 -16 105 -23 -88 vvcurveto
          -99 -186 -35 -72 -55 -105 8 80 vhcurveto
          endchar
        </CharString>
        <CharString name="four">
          -115 457 169 hstemhm
          132 188 479 186 -160 173 hintmask 11100000
          486 463 rmoveto
          315 -11 -2 -409 rlineto
          -41 41 -42 32 74 59 53 79 vhcurveto
          96 -20 88 80 vvcurveto
          19 3 48 5 47 vhcurveto
          15 16 14 25 15 vvcurveto
          28 -14 30 -15 16 vhcurveto
          hintmask 11010000
          246 5 218 250 vvcurveto
          36 -36 58 -51 -51 -44 -27 -71 vhcurveto
          -47 9 -98 -113 vvcurveto
          -163 -5 -187 -8 -77 vhcurveto
          -198 4 rlineto
          -189 3 -112 37 186 49 7 70 56 vvcurveto
          97 -18 80 -66 -64 -32 -35 -43 -1 vhcurveto
          -7 -280 rlineto
          -224 127 -154 227 -8 vhcurveto
          endchar
        </CharString>
        <CharString name="fraction">
          -135 -135 1751 hstem
          55 1104 vstem
          55 -24 -97 callgsubr
          endchar
        </CharString>
        <CharString name="g">
          5 -579 182 371 166 777 173 hstem
          133 192 692 186 vstem
          133 489 rmoveto
          -346 187 -169 332 163 115 66 99 80 vhcurveto
          -3 -77 -14 -105 -3 -58 rrcurveto
          -124 -8 -28 -172 -123 hhcurveto
          -20 -117 -2 27 -67 hvcurveto
          13 -33 -26 24 -28 hhcurveto
          -75 -11 -42 -51 -122 295 -29 73 312 20 266 248 24 hvcurveto
          15 153 4 104 5 76 1 359 rcurveline
          35 -26 42 -44 29 vhcurveto
          -8 5 -5 22 -15 40 rrcurveto
          148 -56 -151 142 -256 hhcurveto
          -348 -161 -299 -302 hvcurveto
          192 -2 rmoveto
          219 80 211 275 166 128 -147 -82 -31 13 -28 13 -29 vhcurveto
          11 -25 10 -28 -4 -37 rrcurveto
          -152 -16 -105 -218 -220 hhcurveto
          -195 -156 71 276 hvcurveto
          endchar
        </CharString>
        <CharString name="germandbls">
          94 -35 173 1131 171 hstemhm
          203 168 116 196 -171 183 218 173 101 183 hintmask 11110110
          205 112 rmoveto
          -103 8 -50 117 68 15 24 93 40 -19 33 -1 39 vhcurveto
          -22 596 rlineto
          186 27 299 324 104 87 -31 -76 -51 -79 -29 -82 -32 vhcurveto
          -123 -45 -142 -57 -152 vvcurveto
          -190 218 -34 187 -32 vhcurveto
          136 -24 159 -35 -99 vvcurveto
          -157 -178 -87 -107 vhcurveto
          hintmask 11101110
          -120 -87 21 53 80 -57 18 -36 -58 -32 -66 -67 -112 141 -100 221 238 258 146 287 243 -258 55 -200 36 hvcurveto
          hintmask 11110110
          -112 19 -117 16 39 vvcurveto
          31 59 25 75 29 vhcurveto
          121 48 148 61 162 vvcurveto
          152 -160 126 -199 -267 -149 -103 -221 -83 vhcurveto
          -31 -105 -4 -112 -99 vvcurveto
          -85 1 -113 5 -92 vhcurveto
          -80 4 -69 -51 -19 2 -43 -136 vvcurveto
          endchar
        </CharString>
        <CharString name="grave">
          -707 1187 465 hstem
          24 448 vstem
          405 1187 -86 callsubr
          endchar
        </CharString>
        <CharString name="grave.cap">
          -707 1479 347 hstem
          -17 541 vstem
          442 1479 -95 callgsubr
          endchar
        </CharString>
        <CharString name="greater">
          -1 callsubr
          201 205 rmoveto
          -73 38 -37 75 31 17 56 46 102 vhcurveto
          101 51 134 85 106 71 63 41 63 43 63 45 rrcurveto
          27 27 29 37 44 vvcurveto
          72 -28 18 -63 11 vhcurveto
          -148 27 -237 106 -144 72 rrcurveto
          51 -91 -29 34 -36 hhcurveto
          -52 -47 -27 -30 -15 6 -72 34 -16 hvcurveto
          299 -155 112 -51 29 -11 47 -16 59 -21 24 -18 -95 -119 -324 -109 -122 -79 -8 -7 -7 -7 -7 -9 rrcurveto
          -11 -15 -10 -22 -28 vvcurveto
          endchar
        </CharString>
        <CharString name="guillemotleft">
          101 -54 callsubr
          -19 -142 -151 -93 -101 vhcurveto
          -80 -75 -168 -126 -118 vvcurveto
          -94 100 -67 81 -46 vhcurveto
          419 120 rmoveto
          70 -12 202 -210 92 -88 rrcurveto
          -24 27 26 -51 36 hhcurveto
          64 38 60 40 19 -34 62 -21 24 hvcurveto
          -173 189 -139 114 -31 23 66 125 144 72 100 79 rrcurveto
          16 13 51 43 64 vvcurveto
          67 -21 34 -83 -38 -48 -74 -43 -49 vhcurveto
          -15 -13 -83 -73 -78 -67 -47 -40 -51 -44 -55 -49 rrcurveto
          -21 -29 -27 -41 -48 vvcurveto
          -92 26 -19 56 -11 vhcurveto
          endchar
        </CharString>
        <CharString name="guillemotright">
          107 32 1045 hstem
          1140 226 vstem
          779 108 rmoveto
          -52 45 -17 32 19 142 151 93 101 vhcurveto
          80 75 168 126 118 vvcurveto
          94 -87 68 -83 45 vhcurveto
          52 -100 -143 -1 callgsubr
          367 -2 callsubr
          -569 20 rmoveto
          -40 28 -56 65 36 26 51 24 27 vhcurveto
          93 89 206 180 65 41 rrcurveto
          51 29 31 37 56 vvcurveto
          48 -27 41 -21 29 vhcurveto
          -153 133 -80 67 -80 73 -16 13 rlinecurve
          43 -48 -51 78 -38 hhcurveto
          -83 -36 -15 -101 -64 58 -48 16 -13 hvcurveto
          100 -81 151 -54 69 -125 -32 -24 -129 -117 -173 -189 rrcurveto
          -22 -24 -33 -61 -20 vvcurveto
          endchar
        </CharString>
        <CharString name="guilsinglleft">
          -431 -54 callsubr
          -17 -147 -149 -95 -98 vhcurveto
          -83 -72 -165 -131 -116 vvcurveto
          -94 100 -67 81 -46 vhcurveto
          endchar
        </CharString>
        <CharString name="guilsinglright">
          -431 31 1038 hstem
          602 226 vstem
          241 100 rmoveto
          -52 45 -17 32 17 147 149 95 98 vhcurveto
          83 72 165 131 116 vvcurveto
          94 -100 67 -81 46 vhcurveto
          52 -100 -162 -1 callgsubr
          397 -2 callsubr
          endchar
        </CharString>
        <CharString name="h">
          66 906 178 -38 callsubr
          421 -3 callsubr
          -257 -152 vhcurveto
          -142 -28 -135 -10 callsubr
          372 -37 callgsubr
          128 9 143 103 2 callsubr
          endchar
        </CharString>
        <CharString name="hbar">
          48 853 180 130 163 -38 callsubr
          368 -3 callsubr
          -255 -152 vhcurveto
          -142 -28 -84 -10 callsubr
          321 -37 callgsubr
          56 0 67 3 68 vhcurveto
          276 4 rlineto
          51 67 15 69 63 -54 12 -49 hvcurveto
          -88 -101 -1 -97 hhcurveto
          1 27 0 24 21 2 callsubr
          -27 vlineto
          -57 -47 -1 -1 -31 hvcurveto
          -41 -41 -33 -47 -41 35 -42 64 hvcurveto
          117 2 rlineto
          endchar
        </CharString>
        <CharString name="hungarumlaut">
          -70 1188 466 hstem
          234 818 vstem
          673 1188 rmoveto
          109 270 -39 callsubr
          -51 0 -52 -49 -141 -188 -37 -25 hvcurveto
          -34 -53 -94 -38 -68 vvcurveto
          -59 0 -23 67 vhcurveto
          -372 hmoveto
          111 270 -39 callsubr
          -51 0 -51 -50 -138 -190 -35 -28 hvcurveto
          -35 -46 -95 -55 -58 vvcurveto
          -59 0 -23 67 vhcurveto
          endchar
        </CharString>
        <CharString name="hyphen">
          -62 callsubr
        </CharString>
        <CharString name="i">
          -723 -26 13 callsubr
          -34 callgsubr
          -139 -1241 -58 callgsubr
          endchar
        </CharString>
        <CharString name="iacute">
          -15 callsubr
          165 466 hstemhm
          221 -25 callgsubr
          -199 447 hintmask 11001000
          320 -95 callsubr
          hintmask 11010000
          -85 -1196 -65 callsubr
          hintmask 11100000
          -98 callgsubr
          hintmask 11010000
          -35 callgsubr
        </CharString>
        <CharString name="icircumflex">
          -15 callsubr
          151 -16 callsubr
          -92 918 -605 -25 callgsubr
          hintmask 10110000
          38 -101 callgsubr
          hintmask 11000100
          197 -1201 -65 callsubr
          hintmask 11001000
          -98 callgsubr
          hintmask 11000100
          -35 callgsubr
        </CharString>
        <CharString name="idieresis">
          -15 callsubr
          167 245 hstemhm
          -6 233 -6 -25 callgsubr
          hintmask 11101000
          138 -94 callgsubr
          -382 -66 callsubr
          hintmask 11101000
          -35 callgsubr
        </CharString>
        <CharString name="igrave">
          -15 callsubr
          167 465 hstemhm
          32 448 -259 -25 callgsubr
          hintmask 11100000
          413 -83 callsubr
          hintmask 11001000
          -178 -66 callsubr
          hintmask 11001000
          -35 callgsubr
        </CharString>
        <CharString name="ij">
          -96 -564 173 365 13 callsubr
          471 185 -34 callgsubr
          595 -21 -23 callgsubr
          -734 -1220 -58 callgsubr
          69 -538 rmoveto
          -62 callgsubr
          -29 callgsubr
          endchar
        </CharString>
        <CharString name="itilde">
          -15 callsubr
          166 -43 callgsubr
          -22 799 -556 -25 callgsubr
          hintmask 10100100
          43 -29 callsubr
          hintmask 11010000
          -91 callsubr
          hintmask 10110000
          -84 callgsubr
          hintmask 10100100
          192 -1224 -65 callsubr
          hintmask 10101000
          -98 callgsubr
          hintmask 10100100
          -35 callgsubr
        </CharString>
        <CharString name="j">
          -722 -564 12 callsubr
          341 1291 -23 callgsubr
          -116 -1408 rmoveto
          -29 callgsubr
          -62 callgsubr
          endchar
        </CharString>
        <CharString name="jcircumflex">
          -723 -464 173 1541 -16 callsubr
          -116 918 -555 185 hintmask 10110000
          14 -101 callgsubr
          211 -1286 -41 callsubr
          hintmask 11001000
          -60 callsubr
        </CharString>
        <CharString name="k">
          -106 -149 13 callgsubr
          551 -84 callsubr
          endchar
        </CharString>
        <CharString name="kcommaaccent">
          -106 -277 -21 149 13 callgsubr
          50 364 137 -84 callsubr
          337 -366 rmoveto
          -71 callgsubr
        </CharString>
        <CharString name="kgreenlandic">
          -138 -105 1236 hstem
          181 209 -179 194 vstem
          181 -39 callgsubr
          31 61 60 76 rlinecurve
          65 82 252 -549 rlineto
          -59 27 16 -95 77 hhcurveto
          63 31 35 -49 callgsubr
          -150 323 -64 callsubr
          -108 -95 -175 -194 rrcurveto
          -3 167 16 140 145 -18 callsubr
          -11 -640 rlineto
          -87 -25 -143 -102 vvcurveto
          endchar
        </CharString>
        <CharString name="l">
          -652 -5 166 hstem
          201 176 -71 callsubr
          endchar
        </CharString>
        <CharString name="ldot">
          -402 -5 166 369 234 hstem
          201 176 169 280 -71 callsubr
          332 462 rmoveto
          -69 callsubr
          endchar
        </CharString>
        <CharString name="less">
          -1 callsubr
          266 385 rmoveto
          147 -27 239 -106 143 -72 rrcurveto
          -53 90 30 -32 36 hhcurveto
          52 47 27 30 15 -6 72 -34 16 hvcurveto
          -300 155 -111 51 -29 11 -47 16 -59 21 -24 18 95 119 324 109 122 79 7 7 7 7 7 9 rrcurveto
          11 15 11 21 29 vvcurveto
          73 -38 37 -75 -31 -17 -56 -46 -102 vhcurveto
          -101 -53 -134 -82 -106 -72 -63 -41 -63 -43 -63 -45 rrcurveto
          -27 -27 -29 -37 -44 vvcurveto
          -72 28 -18 63 -11 vhcurveto
          endchar
        </CharString>
        <CharString name="logicalnot">
          111 676 186 -182 161 hstemhm
          1104 171 hintmask 10100000
          267 676 rmoveto
          hintmask 01100000
          53 56 4 51 hhcurveto
          284 52 -10 -4 313 hvcurveto
          23 5 -17 -27 hvcurveto
          -56 6 -89 -42 -51 -15 -49 -56 vvcurveto
          -53 52 -43 52 48 58 59 52 vhcurveto
          76 -30 28 115 106 10 80 97 vvcurveto
          25 -18 43 -44 vhcurveto
          -140 -81 -23 -70 hhcurveto
          hintmask 10100000
          -235 -10 21 -254 hhcurveto
          -211 -67 -2 -80 -54 52 -50 60 hvcurveto
          endchar
        </CharString>
        <CharString name="lozenge">
          -156 1 1381 hstem
          177 836 vstem
          568 51 rmoveto
          -24 21 35 -26 39 hhcurveto
          65 14 25 56 11 hvcurveto
          24 131 95 204 65 130 rrcurveto
          45 75 31 22 56 vvcurveto
          76 -58 17 -32 61 vhcurveto
          -51 88 -73 118 -64 99 -114 173 rcurveline
          24 -21 -35 26 -39 hhcurveto
          -64 -16 -26 -55 -10 hvcurveto
          -24 -130 -90 -216 -69 -125 -21 -36 -50 -61 -3 -33 -7 -27 13 -31 13 -21 16 -25 15 -35 21 -43 43 -91 80 -118 69 -93 40 -55 42 -55 44 -55 rrcurveto
          53 233 rmoveto
          -86 71 -139 248 -12 89 148 284 -36 -51 72 156 92 -76 86 -216 64 -100 -96 -187 -43 -95 -4 -23 -15 -35 -14 -45 -17 -20 rrcurveto
          endchar
        </CharString>
        <CharString name="lslash">
          -638 -6 166 478 466 hstemhm
          22 585 -392 176 hintmask 11100000
          228 176 -66 callgsubr
          hintmask 11010000
          -12 callgsubr
          169 vlineto
          51 29 39 23 40 25 35 23 rlinecurve
          32 19 43 67 -40 58 -24 35 -50 13 -55 -37 -25 -17 -23 -17 -23 -17 rrcurveto
          361 -18 callgsubr
          -7 -435 -121 -82 -73 -47 -10 -48 44 -51 rlinecurve
          35 -37 53 3 40 27 11 7 9 8 11 8 rrcurveto
          4 -136 12 -130 -137 vvcurveto
          -35 -2 -37 7 -31 vhcurveto
          endchar
        </CharString>
        <CharString name="m">
          720 877 168 -136 175 hstemhm
          173 189 525 202 647 190 hintmask 01111000
          183 133 rmoveto
          -95 9 34 -31 79 hhcurveto
          26 74 35 61 hvcurveto
          -31 252 rlineto
          -11 91 -1 106 97 vvcurveto
          183 54 77 206 163 102 -194 -140 vhcurveto
          -337 vlineto
          -8 -15 -94 -16 vvcurveto
          -85 74 -18 60 56 34 54 59 vhcurveto
          12 -7 79 14 vvcurveto
          432 vlineto
          hintmask 10111000
          148 38 173 62 104 hhcurveto
          208 124 -208 -151 hvcurveto
          -64 3 -58 -64 -146 -52 -25 -107 vvcurveto
          -48 54 -75 75 53 33 62 22 vhcurveto
          11 166 13 92 109 vvcurveto
          464 -204 199 -309 -160 -171 -77 -131 -83 vhcurveto
          hintmask 01111000
          160 -72 -167 87 -139 hhcurveto
          -137 -91 -61 -37 -45 hvcurveto
          52 -14 -41 14 -34 hhcurveto
          -35 -33 -33 -41 -5 hvcurveto
          -13 -109 0 -85 -200 vvcurveto
          -216 7 -156 3 -79 vhcurveto
          endchar
        </CharString>
        <CharString name="macron">
          -63 1259 196 hstem
          180 879 vstem
          279 1259 rmoveto
          678 hlineto
          51 51 0 92 76 -39 28 -49 -209 -394 15 -4 -105 hvcurveto
          -41 -42 -65 -46 -39 35 -57 64 hvcurveto
          endchar
        </CharString>
        <CharString name="minus">
          -62 callsubr
        </CharString>
        <CharString name="mu">
          37 -433 -21 449 172 hstemhm
          178 180 -167 178 644 173 hintmask 11101000
          313 137 rmoveto
          -84 69 105 -58 156 hhcurveto
          -41 callgsubr
          hvcurveto
          -82 callsubr
          -85 1 -58 -56 vvcurveto
          -78 -3 -72 -13 -136 vhcurveto
          -74 -51 -128 -212 -188 -44 callgsubr
          226 51 131 15 vvcurveto
          48 -31 40 -48 -53 -33 -26 -36 -13 vhcurveto
          -37 -98 -16 -204 -123 vvcurveto
          hintmask 11011000
          -63 5 -125 8 -95 vhcurveto
          -699 vlineto
          -40 35 -47 52 67 24 61 88 152 -37 203 -19 87 vhcurveto
          endchar
        </CharString>
        <CharString name="multiply">
          -125 213 804 hstem
          233 765 vstem
          233 314 rmoveto
          -55 52 -46 52 25 41 11 129 102 vhcurveto
          31 39 36 48 47 56 3 -3 44 -48 120 -135 rrcurveto
          -33 29 36 -34 43 hhcurveto
          36 68 26 91 23 -8 23 -19 23 hvcurveto
          -30 35 -36 -9 -19 19 -163 158 rcurveline
          45 50 154 137 27 27 rrcurveto
          25 23 16 25 23 vvcurveto
          44 -74 38 -30 -47 -36 -38 -39 -33 vhcurveto
          -152 -178 -23 25 -13 15 -16 16 -9 15 rlinecurve
          -58 85 -21 36 -11 13 rrcurveto
          40 -32 -44 28 -51 hhcurveto
          -36 -58 -24 -66 -19 5 -22 16 -17 hvcurveto
          233 -253 -29 -42 -62 -51 -51 -40 rlinecurve
          -95 -75 -30 -53 -41 vvcurveto
          endchar
        </CharString>
        <CharString name="n">
          14 callgsubr
          9 callsubr
          694 180 hintmask 10110000
          196 90 -12 callsubr
          hintmask 11010000
          -87 callgsubr
          hintmask 10110000
          -30 callgsubr
        </CharString>
        <CharString name="nacute">
          14 callgsubr
          163 466 9 callsubr
          143 447 104 180 hintmask 11011100
          625 -95 callsubr
          -429 -1174 -12 callsubr
          hintmask 11101100
          -87 callgsubr
          hintmask 11011100
          -30 callgsubr
        </CharString>
        <CharString name="nbspace">
          -735 endchar
        </CharString>
        <CharString name="nine">
          5 636 174 412 169 hstemhm
          124 191 570 193 -164 125 -103 193 hintmask 11110000
          885 56 rmoveto
          -78 100 -45 24 46 23 23 46 vhcurveto
          hintmask 11100100
          13 316 38 210 332 vvcurveto
          hintmask 11101000
          104 -90 -16 61 21 -4 26 3 vvcurveto
          199 -186 133 -213 -158 -354 -121 -220 -306 318 -108 247 79 93 28 35 71 vhcurveto
          hintmask 11100100
          3 -39 1 -39 -36 vvcurveto
          hintmask 11110000
          -260 -51 -116 -153 vvcurveto
          -198 754 rmoveto
          -131 -241 76 129 144 208 63 119 86 147 -73 -104 21 hvcurveto
          hintmask 11101000
          5 -31 13 -97 -23 vvcurveto
          -69 -176 -15 -51 vhcurveto
          endchar
        </CharString>
        <CharString name="ntilde">
          14 callgsubr
          164 181 -54 180 9 callsubr
          -71 799 -34 180 hintmask 10110010
          405 -29 callsubr
          hintmask 11000100
          -91 callsubr
          hintmask 10100100
          -84 callgsubr
          -209 -1202 rmoveto
          -107 71 -11 55 vhcurveto
          hintmask 10101010
          -13 callgsubr
          hvcurveto
          hintmask 10110010
          -87 callgsubr
          hintmask 10101010
          -30 callgsubr
        </CharString>
        <CharString name="numbersign">
          397 405 185 -126 198 176 174 -103 200 hstemhm
          565 180 -171 169 -152 164 269 168 -134 161 -150 182 hintmask 1010001001000000
          365 405 rmoveto
          39 47 0 13 128 hvcurveto
          -76 12 -103 -104 vvcurveto
          -55 63 -35 54 64 24 33 57 106 -25 8 -8 96 vhcurveto
          -3 23 -5 81 4 vvcurveto
          84 11 158 14 72 8 rrcurveto
          -240 vlineto
          -48 72 -24 30 41 39 37 45 vhcurveto
          97 -10 61 69 vvcurveto
          hintmask 0101001010000000
          5 69 42 -24 69 hhcurveto
          68 40 30 71 37 -22 55 -58 hvcurveto
          -27 2 -26 1 -27 1 -45 1 -55 0 -43 -5 rrcurveto
          78 -7 106 81 vvcurveto
          9 16 32 -4 20 43 41 -18 29 hhcurveto
          68 39 45 56 56 -31 43 -55 -37 -99 -30 -3 -76 hvcurveto
          hintmask 0110100100000000
          -4 76 -13 207 52 vvcurveto
          65 -15 52 -75 -78 0 -67 -71 -108 11 -119 5 -103 vhcurveto
          -240 -29 -31 -2 -25 -3 rrcurveto
          1 20 0 23 21 vvcurveto
          56 -10 52 -64 -102 -4 -88 -75 vhcurveto
          -23 -313 vlineto
          -47 -68 -26 -65 -64 145 -19 15 hvcurveto
          268 hlineto
          hintmask 1010010010000000
          8 -67 1 -100 -74 vvcurveto
          -45 -108 -7 -27 hhcurveto
          0 -10 12 -64 -55 -38 -70 -33 -80 77 -14 61 vhcurveto
          381 205 rmoveto
          -5 262 112 21 95 11 104 1 rlinecurve
          -4 -21 10 -217 -28 vvcurveto
          -69 -13 -108 -13 -81 -3 rrcurveto
          -13 -39 2 -2 -2 hvcurveto
          endchar
        </CharString>
        <CharString name="o">
          -42 callgsubr
          1 callsubr
          768 2 callgsubr
          133 532 -100 callgsubr
        </CharString>
        <CharString name="oacute">
          -42 callgsubr
          165 466 1 callsubr
          228 447 93 2 callgsubr
          605 -95 callsubr
          -472 -732 -100 callgsubr
        </CharString>
        <CharString name="ocircumflex">
          -42 callgsubr
          151 -16 callsubr
          14 callsubr
          -61 918 -89 173 hintmask 11010100
          375 1269 -89 callsubr
          rrcurveto
          hintmask 11101010
          -99 callgsubr
          -242 -737 -100 callgsubr
        </CharString>
        <CharString name="odieresis">
          -42 callgsubr
          167 245 1 callsubr
          43 233 492 2 callgsubr
          493 -94 callgsubr
          -839 -734 -100 callgsubr
        </CharString>
        <CharString name="oe">
          945 -26 165 -163 159 796 168 hstemhm
          14 callsubr
          778 119 23 12 hintmask 10111100
          133 532 -53 callsubr
          180 172 88 148 102 vhcurveto
          hintmask 01111100
          -142 105 178 -92 182 hhcurveto
          -56 callgsubr
          hvcurveto
          -43 -154 -84 -153 hhcurveto
          -146 -270 18 240 -56 hvcurveto
          678 211 -79 callsubr
          -248 -175 -89 -156 -103 vhcurveto
          157 -89 -155 90 -211 hhcurveto
          -47 callsubr
          hvcurveto
          1108 18 rmoveto
          293 32 277 89 -61 callsubr
          -150 -67 -395 -118 -184 -52 rrcurveto
          -935 7 rmoveto
          245 235 129 208 188 147 -164 -240 vhcurveto
          hintmask 10111100
          -245 -200 -68 callgsubr
        </CharString>
        <CharString name="ogonek">
          -675 -539 152 hstem
          75 192 vstem
          75 -301 rmoveto
          -133 141 -105 179 60 81 4 32 49 vhcurveto
          40 27 10 52 42 vvcurveto
          36 -18 36 -32 vhcurveto
          -101 3 -77 -80 hhcurveto
          -61 -63 14 114 -16 hvcurveto
          157 225 111 79 36 vhcurveto
          43 19 34 64 -38 43 -40 45 -106 -13 -72 -72 rrcurveto
          -43 -39 -274 -128 -265 vvcurveto
          endchar
        </CharString>
        <CharString name="ograve">
          -42 callgsubr
          167 465 1 callsubr
          127 448 193 2 callgsubr
          814 -83 callsubr
          -681 -734 -100 callgsubr
        </CharString>
        <CharString name="one">
          -675 -5 1371 hstemhm
          232 182 -143 181 hintmask 11000000
          355 -5 rmoveto
          52 32 38 47 hvcurveto
          95 -25 101 80 vvcurveto
          hintmask 10100000
          240 38 365 299 vvcurveto
          79 -95 27 -27 -44 -64 -57 -49 vhcurveto
          -53 49 -41 -40 vvcurveto
          hintmask 11000000
          -236 -39 -288 -213 vvcurveto
          -201 -20 -193 143 vhcurveto
          endchar
        </CharString>
        <CharString name="onehalf">
          1146 -43 5 callsubr
          8 callsubr
          1207 212 hintmask 11101000
          -30 callsubr
          hintmask 11011000
          -26 callsubr
          -60 -37 -25 callsubr
          hintmask 11101000
          -21 -140 -16 -51 callsubr
          hintmask 11011000
          53 -764 -97 callgsubr
          972 90 -69 callgsubr
          138 -48 -37 callsubr
        </CharString>
        <CharString name="onequarter">
          1029 324 174 8 callsubr
          725 185 329 176 hintmask 11011000
          -30 callsubr
          hintmask 10111000
          -26 callsubr
          -60 -37 -25 callsubr
          hintmask 11011000
          -21 -140 -16 -51 callsubr
          hintmask 10111000
          53 -764 -97 callgsubr
          880 663 -76 callsubr
        </CharString>
        <CharString name="onesuperior">
          -710 398 1127 hstem
          196 184 vstem
          342 398 rmoveto
          -57 callsubr
          -26 callsubr
          -52 callsubr
          -72 15 36 -25 80 hhcurveto
          endchar
        </CharString>
        <CharString name="ordfeminine">
          210 454 155 -138 169 228 157 142 161 hstemhm
          282 180 431 170 hintmask 10111100
          609 454 rmoveto
          147 80 47 64 67 hvcurveto
          hintmask 01111100
          -64 35 62 -30 91 hhcurveto
          88 75 57 69 57 -29 25 -52 -33 -11 -15 -15 -15 hvcurveto
          -6 -3 -6 -3 -8 hhcurveto
          -13 -14 6 33 -7 hvcurveto
          259 vlineto
          223 -184 167 -222 -134 -251 -18 -113 -69 29 -24 68 27 19 11 12 20 vhcurveto
          -1 vlineto
          11 5 13 8 4 1 rrcurveto
          8 24 77 19 86 hhcurveto
          32 177 -11 -181 29 hvcurveto
          32 -65 -80 18 -95 hhcurveto
          -271 -95 -109 -183 hvcurveto
          hintmask 10111100
          -157 124 -122 203 vhcurveto
          -147 286 rmoveto
          95 76 33 127 94 102 -37 -80 24 vhcurveto
          -33 -7 -25 -15 -18 -21 -16 -17 rcurveline
          -37 -32 -36 -45 -97 hhcurveto
          -109 -57 68 63 hvcurveto
          76 -558 -24 callsubr
        </CharString>
        <CharString name="ordmasculine">
          22 451 162 553 164 hstem
          238 168 535 168 vstem
          682 451 rmoveto
          220 207 171 247 284 -159 177 -260 -224 -228 -120 -323 -199 207 -237 237 hvcurveto
          -15 162 rmoveto
          -131 -130 153 139 172 165 89 147 129 94 -115 -168 -172 -133 -98 -141 hvcurveto
          -131 -431 -24 callsubr
        </CharString>
        <CharString name="oslash">
          30 -26 166 792 166 hstem
          134 172 765 175 vstem
          190 6 rmoveto
          -47 48 -38 72 67 30 60 64 35 vhcurveto
          -43 79 85 -28 92 hhcurveto
          281 267 218 316 171 -48 143 -79 97 hvcurveto
          45 53 79 30 51 vvcurveto
          48 -26 28 -55 -66 -67 -48 -32 -24 vhcurveto
          -18 -19 rlineto
          49 -80 -83 19 -115 hhcurveto
          -288 -287 -153 -413 -125 58 -132 99 -107 hvcurveto
          -29 -50 -26 -13 -37 -67 rrcurveto
          -9 -17 0 -8 -7 vvcurveto
          209 301 rmoveto
          -53 72 -40 98 80 vvcurveto
          252 228 123 212 39 52 -8 -21 35 vhcurveto
          -174 -209 -139 -190 -160 -197 rrcurveto
          124 -120 rmoveto
          128 168 210 273 131 166 rrcurveto
          53 -65 26 -93 -109 vvcurveto
          -245 -184 -142 -208 -53 -60 20 27 -43 vhcurveto
          endchar
        </CharString>
        <CharString name="otilde">
          -42 callgsubr
          166 -43 callgsubr
          14 callsubr
          14 799 -45 173 hintmask 11011010
          385 -29 callsubr
          hintmask 11101100
          -91 callsubr
          hintmask 11011100
          -84 callgsubr
          -252 -760 -53 callsubr
          vhcurveto
          hintmask 11011010
          -78 callsubr
          hvcurveto
          -91 callgsubr
        </CharString>
        <CharString name="p">
          75 -11 167 753 169 hstem
          196 173 718 189 vstem
          196 99 rmoveto
          2 -244 rlineto
          -67 2 -117 -58 vvcurveto
          -94 49 -29 60 48 59 27 53 116 -38 139 3 125 vhcurveto
          78 vlineto
          -27 75 76 -12 119 hhcurveto
          388 237 226 395 260 -232 208 -419 -140 -209 -52 -157 -80 hvcurveto
          185 -668 rmoveto
          -6 126 rlineto
          -3 66 -3 73 27 vvcurveto
          2 282 rlineto
          88 16 158 46 81 hhcurveto
          285 176 -113 -220 -308 -244 -112 -280 -42 -145 2 43 5 hvcurveto
          endchar
        </CharString>
        <CharString name="paragraph">
          202 285 174 739 179 hstemhm
          150 190 422 176 -26 8 137 172 hintmask 11101100
          714 35 rmoveto
          -157 -114 51 -91 83 hhcurveto
          120 21 105 108 22 hvcurveto
          5 27 5 34 5 94 rrcurveto
          7 123 15 166 180 vvcurveto
          hintmask 11110100
          58 4 282 207 vvcurveto
          59 -21 50 -37 8 -47 rrcurveto
          -23 vlineto
          -39 2 -72 -141 -24 -6 -83 -67 vvcurveto
          -3 -33 -1 -35 -19 vvcurveto
          -2 -284 3 -87 -8 -85 -8 -67 rlinecurve
          -7 -39 -2 -27 -27 vvcurveto
          -53 41 -28 52 61 48 30 96 vhcurveto
          56 2 71 64 vvcurveto
          248 vlineto
          40 2 43 12 vvcurveto
          672 vlineto
          98 -76 43 -76 -38 vhcurveto
          -49 27 -50 28 -51 23 rrcurveto
          39 -13 -27 19 -41 hhcurveto
          -29 -22 -11 -17 -15 hvcurveto
          -408 -8 -222 -205 -258 vvcurveto
          -371 208 -223 379 -24 vhcurveto
          -4 -83 -6 -93 -13 -76 rrcurveto
          35 431 rmoveto
          -229 27 -180 121 260 vvcurveto
          209 160 103 260 11 vhcurveto
          -10 -722 rlineto
          -3 -1 -3 -3 vvcurveto
          endchar
        </CharString>
        <CharString name="parenleft">
          -545 -186 1667 hstem
          205 187 vstem
          403 -1 rmoveto
          80 -88 -15 -27 72 -56 rrcurveto
          -9 13 15 -5 19 hhcurveto
          58 67 44 66 64 -33 26 -51 37 hvcurveto
          -124 87 -112 231 191 vvcurveto
          166 45 348 123 127 vhcurveto
          51 54 51 55 81 vvcurveto
          53 -14 37 -60 -20 -25 -16 -16 -21 vhcurveto
          -12 -9 -12 -11 -13 -12 rrcurveto
          -194 -196 -86 -349 -312 vvcurveto
          -198 80 -235 118 -128 vhcurveto
          endchar
        </CharString>
        <CharString name="parenright">
          -575 -169 1650 hstem
          381 188 vstem
          88 -83 rmoveto
          -51 34 -35 59 72 50 92 76 68 vhcurveto
          118 128 80 235 198 vvcurveto
          312 -73 349 -194 196 vhcurveto
          -15 12 -14 11 -14 9 rrcurveto
          16 -24 -30 16 -19 hhcurveto
          -60 -8 -37 -69 -44 49 -77 53 -53 hvcurveto
          123 -127 38 -348 -166 vvcurveto
          -191 -97 -230 -123 -88 vhcurveto
          -52 -37 -21 -54 -43 vvcurveto
          endchar
        </CharString>
        <CharString name="percent">
          484 0 155 305 146 271 145 244 199 hstem
          -14 callsubr
          vstem
          -87 callsubr
          586 -722 rmoveto
          -38 callgsubr
          177 -1 rmoveto
          -24 callgsubr
        </CharString>
        <CharString name="period">
          -769 -19 -4 callsubr
          vstem
          150 90 rmoveto
          -69 callsubr
          endchar
        </CharString>
        <CharString name="periodcentered">
          -769 530 -4 callsubr
          vstem
          305 530 -45 callgsubr
        </CharString>
        <CharString name="perthousand">
          1168 0 155 -27 145 187 146 -77 150 198 145 244 199 hstemhm
          -14 callsubr
          155 164 215 150 hintmask 0101111111110000
          -87 callsubr
          1346 -628 rmoveto
          -165 88 -101 177 161 103 185 142 130 -54 17 -63 29 vhcurveto
          32 -75 -39 16 -99 hhcurveto
          -134 -65 -203 -82 hvcurveto
          -760 -94 rmoveto
          hintmask 1010111111110000
          -38 callgsubr
          924 98 rmoveto
          hintmask 0101111111110000
          45 52 86 30 40 93 -32 -38 -53 -51 -133 -46 -72 -46 38 87 vhcurveto
          -747 -99 rmoveto
          hintmask 1010111111110000
          -24 callgsubr
        </CharString>
        <CharString name="plus">
          -45 520 176 -161 174 hstemhm
          572 182 -182 192 hintmask 10010000
          252 520 rmoveto
          320 hlineto
          -165 -20 -13 -102 vvcurveto
          -83 48 -21 57 60 47 6 125 vhcurveto
          hintmask 01100000
          78 -10 65 117 vvcurveto
          7 8 25 1 31 43 85 -3 36 hhcurveto
          67 80 6 98 39 -7 72 -84 -44 -26 -20 -11 -24 hvcurveto
          -52 -77 -4 -3 -54 hvcurveto
          -5 30 -2 53 5 vvcurveto
          31 2 46 3 39 vhcurveto
          hintmask 10010000
          1 22 2 23 2 23 rrcurveto
          49 0 34 -67 -108 -17 -84 -84 vhcurveto
          -199 vlineto
          -1 -9 -9 0 -9 hhcurveto
          -52 hlineto
          -18 -109 18 -40 hhcurveto
          -68 -83 -22 -97 -37 34 -38 43 hvcurveto
          endchar
        </CharString>
        <CharString name="plusminus">
          -164 162 193 -187 175 458 199 hstemhm
          494 213 -193 181 hintmask 10110000
          584 533 rmoveto
          66 57 11 151 hvcurveto
          43 -11 35 35 vvcurveto
          97 16 180 -53 146 vvcurveto
          44 -7 59 -91 -21 -86 -30 -3 -66 vhcurveto
          hintmask 10101000
          -5 17 -2 18 21 48 11 47 24 vvcurveto
          53 1 40 -75 -101 -9 -82 -86 -8 vhcurveto
          -110 vlineto
          -43 -75 23 -48 hhcurveto
          -77 -59 -27 -97 -37 32 -38 45 hvcurveto
          225 hlineto
          hintmask 01110000
          -48 -20 -87 -48 vvcurveto
          -71 30 -14 60 vhcurveto
          -343 -284 rmoveto
          -72 50 -9 52 vhcurveto
          94 53 14 76 hhcurveto
          hintmask 10110000
          66 106 -20 102 hhcurveto
          32 77 35 65 57 -34 36 -56 hvcurveto
          hintmask 01110000
          -161 -167 -12 -143 hhcurveto
          -112 -35 -20 -74 hvcurveto
          endchar
        </CharString>
        <CharString name="q">
          34 -5 177 747 169 hstem
          133 185 701 191 vstem
          133 520 rmoveto
          -248 197 -277 334 150 140 86 96 67 vhcurveto
          -3 -109 1 -70 -43 vvcurveto
          -15 -376 rlineto
          -71 38 -18 67 35 66 19 59 145 -7 157 -1 143 vhcurveto
          63 2 47 3 49 vhcurveto
          3 57 0 56 61 vvcurveto
          278 vlineto
          20 -8 15 -5 8 vhcurveto
          282 -4 -315 139 -208 hhcurveto
          -308 -229 -236 -332 hvcurveto
          185 22 rmoveto
          244 185 133 208 124 166 -85 -172 40 vhcurveto
          -21 -48 -20 -80 -39 vvcurveto
          -199 -175 -124 -145 -252 -110 201 169 vhcurveto
          endchar
        </CharString>
        <CharString name="question">
          -191 -14 234 1144 164 hstem
          887 8 callgsubr
          312 471 rmoveto
          11 -65 101 -47 78 16 40 8 6 30 -7 35 -21 128 138 53 104 48 rrcurveto
          212 97 92 140 207 vvcurveto
          268 -194 139 -261 -94 -294 -86 -127 -65 36 -17 32 vhcurveto
          116 46 131 154 hhcurveto
          140 140 -75 -185 -176 -98 -70 -157 -72 hvcurveto
          -176 -83 -163 -107 19 -125 rrcurveto
          -57 -374 rmoveto
          -88 100 -23 55 83 42 44 80 89 -78 21 -62 -63 -77 -62 -61 vhcurveto
          endchar
        </CharString>
        <CharString name="questiondown">
          -254 -126 164 1144 234 hstem
          101 8 callgsubr
          772 1182 rmoveto
          63 77 62 61 88 -100 23 -55 -83 -42 -44 -80 -89 78 -21 62 hvcurveto
          -671 -901 rmoveto
          -268 193 -139 262 93 295 86 127 65 -36 17 -32 vhcurveto
          -115 -48 -131 -153 hhcurveto
          -140 -140 75 185 176 98 70 157 72 hvcurveto
          176 83 163 107 -19 125 -10 63 -102 49 -78 -16 -40 -8 -6 -30 7 -35 21 -128 -138 -53 -104 -48 rrcurveto
          -212 -97 -92 -140 -207 vvcurveto
          endchar
        </CharString>
        <CharString name="quotedbl">
          -402 846 618 hstem
          204 197 181 190 vstem
          678 846 rmoveto
          26 -6 49 58 8 39 4 60 45 451 -124 16 -36 6 -72 -57 -8 -49 rrcurveto
          -5 -76 17 -84 -80 vvcurveto
          -5 -137 -5 -123 106 -18 rrcurveto
          -353 26 rmoveto
          60 16 92 183 105 -16 179 -91 -60 -32 -77 -25 hvcurveto
          -34 2 -12 -154 vvcurveto
          -125 14 -132 107 vhcurveto
          endchar
        </CharString>
        <CharString name="quotedblbase">
          -392 -207 701 hstem
          91 772 vstem
          91 64 rmoveto
          -52 77 -43 46 94 -10 66 54 27 vhcurveto
          -19 callsubr
          vhcurveto
          367 -181 rmoveto
          -65 27 -25 45 150 93 279 99 63 vhcurveto
          -27 callgsubr
          -340 -85 vvcurveto
          endchar
        </CharString>
        <CharString name="quotedblleft">
          -320 867 658 hstem
          165 805 vstem
          872 1020 rmoveto
          65 33 15 81 39 -244 370 -57 -64 -45 -49 -51 -61 245 -344 67 hvcurveto
          -359 -153 rmoveto
          73 19 19 73 80 -264 319 -47 20 hvcurveto
          18 -42 -3 0 -2 hhcurveto
          -33 -49 -56 -36 -51 20 -25 21 -23 hvcurveto
          -54 43 149 -284 115 hhcurveto
          endchar
        </CharString>
        <CharString name="quotedblright">
          -392 841 701 hstem
          91 772 vstem
          214 1017 rmoveto
          94 -10 66 54 27 hvcurveto
          -19 callsubr
          -52 77 -43 46 vhcurveto
          316 -176 rmoveto
          150 93 279 99 63 hvcurveto
          -27 callgsubr
          -339 -86 vvcurveto
          -65 27 -25 45 vhcurveto
          endchar
        </CharString>
        <CharString name="quoteleft">
          -717 1049 476 hstem
          111 391 vstem
          414 1049 rmoveto
          76 12 62 53 40 -44 39 -33 22 hvcurveto
          -50 32 -15 42 -14 25 rrcurveto
          48 -27 -53 113 -44 hhcurveto
          -56 -55 0 -78 -100 186 -298 117 hvcurveto
          endchar
        </CharString>
        <CharString name="quoteright">
          -717 1088 11 callsubr
          204 1088 rmoveto
          -16 callgsubr
          hvcurveto
          -48 -56 -84 -99 -7 -20 rrcurveto
          4 callgsubr
          vhcurveto
          endchar
        </CharString>
        <CharString name="quotesinglbase">
          -717 -147 11 callsubr
          150 -8 rmoveto
          4 callgsubr
          -16 callgsubr
          vhcurveto
          -48 -56 -84 -99 -7 -20 rrcurveto
          endchar
        </CharString>
        <CharString name="quotesingle">
          -799 814 622 hstem
          163 198 vstem
          257 814 rmoveto
          68 47 48 63 hvcurveto
          10 -11 108 14 vvcurveto
          288 vlineto
          54 -85 37 -19 -78 -16 -157 -124 vhcurveto
          -37 5 -40 -21 -19 -6 0 -93 vvcurveto
          -3 vlineto
          -46 25 -82 70 vhcurveto
          endchar
        </CharString>
        <CharString name="r">
          -191 938 173 hstem
          183 193 vstem
          -74 callsubr
          endchar
        </CharString>
        <CharString name="rcaron">
          -191 938 173 129 438 hstemhm
          183 193 -120 926 hintmask 11010000
          665 -40 callgsubr
          -60 callgsubr
          -477 -1111 -36 callsubr
          hintmask 11100000
          -86 callgsubr
          endchar
        </CharString>
        <CharString name="rcommaaccent">
          -191 -277 -21 1236 173 hstemhm
          183 193 -184 364 hintmask 11100000
          -74 callsubr
          84 -427 rmoveto
          hintmask 11010000
          -71 callgsubr
        </CharString>
        <CharString name="registered">
          411 -26 141 538 103 238 155 111 138 hstemhm
          134 155 224 169 -144 187 230 176 -92 177 167 161 hintmask 1111101011000000
          134 -11 callgsubr
          225 453 -46 callsubr
          -403 -260 -163 -2 callgsubr
          243 -350 rmoveto
          -27 47 -61 48 53 45 32 63 vhcurveto
          78 -26 89 73 vvcurveto
          32 70 80 2 8 hhcurveto
          127 55 -82 -117 hvcurveto
          -32 -9 -20 -8 vvcurveto
          hintmask 1111110101000000
          -64 18 -48 83 vhcurveto
          hintmask 1111110011000000
          27 58 35 48 222 -36 161 -189 8 hvcurveto
          hintmask 1111110101000000
          64 27 76 69 80 vvcurveto
          164 -142 53 -116 -123 -111 -54 -81 -91 vhcurveto
          -34 -71 -1 -92 -62 vvcurveto
          hintmask 1111101101000000
          -111 25 -124 -110 -27 -6 -21 -24 vvcurveto
          152 399 rmoveto
          hintmask 1111110101000000
          -3 31 1 47 33 vvcurveto
          58 119 54 68 41 45 -13 -56 -69 -197 -69 -74 -16 vhcurveto
          endchar
        </CharString>
        <CharString name="ring">
          -516 1172 -19 callgsubr
          1172 -80 callsubr
          endchar
        </CharString>
        <CharString name="ring.cap">
          -516 1384 -19 callgsubr
          1384 -80 callsubr
          endchar
        </CharString>
        <CharString name="s">
          -10 -35 174 808 184 hstemhm
          176 180 559 136 -67 182 hintmask 11101000
          250 157 rmoveto
          -170 232 -22 121 156 407 78 215 204 -229 58 -221 35 vhcurveto
          -179 27 -181 27 103 vvcurveto
          123 226 112 131 vhcurveto
          hintmask 11110000
          128 74 -22 -103 -32 1 -50 52 85 -2 118 67 106 -121 100 -188 -268 -298 -159 -271 -252 304 -46 246 -32 hvcurveto
          hintmask 11101000
          141 -24 117 -49 -43 vvcurveto
          -33 -196 -83 -159 -134 -44 4 99 -88 vhcurveto
          -48 54 -65 -104 -35 vvcurveto
          endchar
        </CharString>
        <CharString name="section">
          -137 -168 174 1218 171 hstemhm
          145 184 -179 188 505 188 -167 183 hintmask 11010100
          168 23 rmoveto
          -169 268 -22 117 160 334 78 215 139 -91 69 -161 32 vhcurveto
          hintmask 11101000
          124 37 112 113 117 vvcurveto
          304 -401 57 -124 24 vhcurveto
          -127 26 -50 6 54 vvcurveto
          31 121 90 144 135 58 -21 -51 61 vhcurveto
          -19 23 17 -9 17 hhcurveto
          43 25 56 24 172 -231 19 -120 -154 -323 -76 -216 -129 117 -72 142 -16 hvcurveto
          hintmask 11010100
          -162 -56 -92 -114 -123 vvcurveto
          -290 373 -53 120 -16 vhcurveto
          141 -20 80 -19 -56 vvcurveto
          -45 -129 -88 -155 vhcurveto
          -233 -36 119 -48 hhcurveto
          -71 -24 -67 -35 hvcurveto
          170 567 rmoveto
          104 140 106 104 vhcurveto
          hintmask 11011000
          132 129 -36 -126 -105 -142 -106 -97 -125 -141 35 128 hvcurveto
          endchar
        </CharString>
        <CharString name="semicolon">
          -790 590 265 hstem
          161 249 vstem
          299 590 rmoveto
          68 43 41 87 75 -23 62 -88 -100 -38 -21 -116 -67 59 -61 79 hvcurveto
          -236 -698 rmoveto
          -39 24 -72 67 47 18 23 35 19 vhcurveto
          24 40 112 160 -54 callgsubr
          -124 6 -135 -88 -37 vhcurveto
          -24 -58 -45 -36 -85 vvcurveto
          endchar
        </CharString>
        <CharString name="seven">
          -208 1167 161 hstem
          105 924 vstem
          351 92 rmoveto
          -47 25 -45 54 113 14 75 72 13 vhcurveto
          11 71 33 95 35 69 56 109 227 517 80 164 rrcurveto
          11 24 6 15 23 vvcurveto
          54 -20 63 -62 -13 -18 -2 -12 -17 vhcurveto
          -24 -130 -9 -28 -179 -170 10 -173 hhcurveto
          -53 -37 -40 -39 -94 136 -10 74 hvcurveto
          66 136 12 78 hhcurveto
          84 61 5 -11 81 hvcurveto
          -39 -84 -416 -880 -6 -45 rrcurveto
          -8 -47 -1 -6 -7 vvcurveto
          endchar
        </CharString>
        <CharString name="six">
          100 -4 184 377 189 hstem
          163 189 308 182 302 2 callgsubr
          163 616 rmoveto
          -472 164 -148 401 306 283 233 297 131 -41 89 -144 -355 -106 -269 -297 -11 vhcurveto
          -272 4 -36 192 230 vvcurveto
          181 118 250 101 176 vhcurveto
          11 19 3 7 23 vvcurveto
          56 -13 45 -69 -117 -223 -553 -194 vhcurveto
          682 -425 rmoveto
          -4 11 1 18 11 vvcurveto
          139 86 187 164 24 28 -10 -29 -165 -137 -157 -162 -5 vhcurveto
          endchar
        </CharString>
        <CharString name="slash">
          11 callgsubr
          152 704 vstem
          169 -66 rmoveto
          -16 -65 -1 -1 -2 vvcurveto
          -60 82 -21 45 64 8 78 52 16 vhcurveto
          16 59 107 467 99 365 59 218 115 323 88 204 rrcurveto
          4 11 1 8 11 vvcurveto
          60 -34 31 -51 -57 -39 -66 -42 -16 vhcurveto
          -175 -461 -195 -713 -120 -456 rrcurveto
          endchar
        </CharString>
        <CharString name="space">
          -603 endchar
        </CharString>
        <CharString name="sterling">
          8 7 182 370 183 -177 175 439 170 hstemhm
          438 200 -193 199 hintmask 10111000
          200 92 rmoveto
          -49 24 -41 77 179 207 12 -3 128 vhcurveto
          321 -7 rlineto
          61 20 63 36 68 -18 39 -76 hvcurveto
          -51 -168 -20 -184 hhcurveto
          -176 hlineto
          73 89 21 120 135 vvcurveto
          11 -8 31 16 76 76 -6 -7 75 vhcurveto
          hintmask 11010100
          -3 19 15 -1 27 hhcurveto
          39 82 3 96 69 -45 15 -36 hvcurveto
          -102 -65 -3 -91 -23 -22 2 -27 hhcurveto
          1 152 14 108 59 75 rrcurveto
          17 14 116 86 77 hhcurveto
          82 21 -11 -19 40 hvcurveto
          -8 16 43 -40 31 hhcurveto
          50 4 61 25 113 -221 49 -60 -94 -160 -55 -50 -56 hvcurveto
          -50 -45 -57 -88 -27 -100 rrcurveto
          -7 -26 -35 -194 -24 vvcurveto
          -7 1 -10 -3 -11 vhcurveto
          -120 3 rlineto
          -51 -43 -43 -52 -39 42 -54 52 5 hvcurveto
          hintmask 10111000
          115 13 rlineto
          -40 vlineto
          -151 -32 -125 -148 -59 vhcurveto
          -19 -8 -39 -49 -48 vvcurveto
          endchar
        </CharString>
        <CharString name="t">
          -186 -15 181 647 178 hstem
          357 191 vstem
          726 -15 rmoveto
          81 120 83 65 51 hvcurveto
          11 13 7 24 15 vvcurveto
          43 -8 26 -51 -16 -28 -13 -13 -15 vhcurveto
          -24 -29 -86 -38 -46 hhcurveto
          -206 40 430 212 3 1 3 3 3 hvcurveto
          409 -7 rlineto
          36 53 28 58 32 -30 64 -53 -157 -113 -6 -3 -153 hvcurveto
          8 74 2 33 5 30 rrcurveto
          5 38 5 29 107 vvcurveto
          51 -44 34 -31 -39 -55 -47 -45 -8 vhcurveto
          -16 -69 4 -53 -8 -77 -3 -32 -4 -34 -4 -33 -210 5 rcurveline
          -62 -52 -39 -57 -56 90 -32 31 56 17 1 3 32 hvcurveto
          1 28 27 0 36 hhcurveto
          -313 8 -33 -517 394 hhcurveto
          endchar
        </CharString>
        <CharString name="thorn">
          36 -434 -21 440 173 740 175 hstemhm
          194 220 -215 177 648 197 hintmask 11101100
          199 215 rmoveto
          5 -220 5 -248 5 -85 rrcurveto
          -88 5 41 -29 73 hhcurveto
          hintmask 11110100
          40 41 35 65 hvcurveto
          61 -20 190 111 vvcurveto
          -11 51 58 -11 47 hhcurveto
          269 402 135 424 361 -183 168 -369 -116 -96 -43 -52 -85 hvcurveto
          120 6 74 133 vvcurveto
          99 vlineto
          48 -60 27 -37 -79 -8 -49 -82 vhcurveto
          hintmask 11101100
          -32 5 -65 -96 -203 -3 -205 -209 vvcurveto
          -96 0 -114 3 -113 vhcurveto
          193 -33 rmoveto
          -3 16 -13 29 86 109 -4 119 93 vvcurveto
          63 1 49 7 21 vhcurveto
          75 48 134 56 96 hhcurveto
          194 172 -92 -227 -264 -205 -157 -255 -67 -73 5 19 -32 hvcurveto
          endchar
        </CharString>
        <CharString name="three">
          -32 -7 177 1015 174 hstemhm
          926 194 -181 192 hintmask 11100000
          143 88 rmoveto
          -38 12 -57 72 565 328 38 450 125 -128 93 -125 40 vhcurveto
          hintmask 11010000
          179 157 85 159 75 vvcurveto
          159 -101 70 -181 -131 -363 -59 -160 -36 54 -28 35 34 9 20 24 53 vhcurveto
          34 68 120 31 84 hhcurveto
          35 92 -6 -24 -153 -168 -129 -122 -80 hvcurveto
          -120 -29 -146 -36 -118 vvcurveto
          -52 39 -26 71 vhcurveto
          76 52 47 61 hhcurveto
          hintmask 11100000
          128 116 -30 -103 -262 -323 -14 -151 hvcurveto
          -144 17 38 -115 hhcurveto
          -47 -20 -90 -30 hvcurveto
          endchar
        </CharString>
        <CharString name="threequarters">
          1407 -340 -21 370 174 330 162 761 170 hstemhm
          952 183 -144 186 475 185 329 176 hintmask 11110111
          910 -24 -97 callgsubr
          -448 537 -14 callgsubr
          hintmask 11111011
          -63 callsubr
          hintmask 11110111
          -35 callsubr
          1188 -189 -76 callsubr
        </CharString>
        <CharString name="threesuperior">
          -249 411 162 761 170 hstemhm
          701 183 -144 186 hintmask 11010000
          211 411 -14 callgsubr
          hintmask 11100000
          -63 callsubr
          hintmask 11010000
          -35 callsubr
          endchar
        </CharString>
        <CharString name="tilde">
          -107 1186 -10 callgsubr
          1213 -57 callgsubr
        </CharString>
        <CharString name="tilde.cap">
          -107 1480 -10 callgsubr
          1507 -57 callgsubr
        </CharString>
        <CharString name="trademark">
          649 1181 149 hstem
          389 154 347 152 563 150 vstem
          877 636 rmoveto
          -68 3 -57 102 53 19 48 63 28 -7 22 -5 11 vhcurveto
          80 2 71 76 vvcurveto
          -119 61 79 -139 40 hhcurveto
          21 11 -1 11 17 hvcurveto
          119 79 107 165 106 130 rrcurveto
          -332 vlineto
          -40 -26 -31 -40 vvcurveto
          -75 102 -15 4 11 59 17 48 vhcurveto
          241 8 229 224 vvcurveto
          55 -34 37 -55 -57 -18 -57 -68 -22 vhcurveto
          -95 -124 -129 -168 -101 -98 -19 23 -141 309 -32 79 rrcurveto
          39 -5 -23 47 -48 hhcurveto
          -59 -35 -99 -59 hvcurveto
          -77 -9 -108 -301 vvcurveto
          -4 -32 0 -15 -9 vvcurveto
          -379 -126 rmoveto
          69 10 21 53 23 -13 55 -2 7 hvcurveto
          -16 171 -3 91 63 53 4 35 107 vvcurveto
          -3 3 71 -5 20 hhcurveto
          -15 16 27 -11 28 hhcurveto
          39 50 54 35 44 -36 53 -53 hvcurveto
          -64 -28 -11 -13 -117 -118 -7 -107 hhcurveto
          -61 -56 -25 -88 -41 31 -20 92 28 22 2 11 68 hvcurveto
          -86 vlineto
          -141 12 -108 -139 -21 -3 -10 -23 vvcurveto
          -69 5 -55 95 vhcurveto
          endchar
        </CharString>
        <CharString name="two">
          -52 11 153 1030 175 hstem
          760 187 vstem
          288 52 rmoveto
          -20 38 -46 32 vhcurveto
          167 180 25 152 37 37 -9 37 hhcurveto
          11 12 0 3 11 hvcurveto
          31 8 82 27 59 vvcurveto
          36 -61 85 -48 -35 -32 -20 -5 -20 vhcurveto
          -21 -88 -173 -10 -48 hhcurveto
          -23 -21 1 3 -13 hvcurveto
          34 90 44 54 56 91 rrcurveto
          128 208 132 226 230 vvcurveto
          187 -203 115 -172 -97 -90 -7 -64 -77 vhcurveto
          -64 -53 -57 -54 -85 vvcurveto
          -21 13 -90 61 60 13 108 37 35 vhcurveto
          39 35 71 15 87 hhcurveto
          92 106 -45 -121 -163 -221 -357 -104 -188 hvcurveto
          -50 -87 -97 -57 -124 vvcurveto
          endchar
        </CharString>
        <CharString name="twosuperior">
          -204 427 5 callsubr
          hstem
          639 212 vstem
          247 536 -69 callgsubr
          137 -47 -37 callsubr
        </CharString>
        <CharString name="u">
          6 callgsubr
          hstem
          7 callsubr
          655 2 callgsubr
          153 577 -104 callsubr
        </CharString>
        <CharString name="uacute">
          6 callgsubr
          1135 466 hstem
          7 callsubr
          156 447 52 2 callgsubr
          560 -95 callsubr
          -407 -687 -104 callsubr
        </CharString>
        <CharString name="ucircumflex">
          6 callgsubr
          1121 -16 callsubr
          7 callsubr
          -133 918 -130 173 hintmask 10101000
          330 -101 callgsubr
          hintmask 11010100
          -177 -692 -104 callsubr
        </CharString>
        <CharString name="udieresis">
          6 callgsubr
          1137 245 hstemhm
          7 callsubr
          -29 233 451 173 hintmask 11011000
          448 -94 callgsubr
          hintmask 11101000
          -774 -689 -104 callsubr
        </CharString>
        <CharString name="ugrave">
          6 callgsubr
          1137 465 hstem
          7 callsubr
          55 448 152 2 callgsubr
          769 -83 callsubr
          -616 -689 -104 callsubr
        </CharString>
        <CharString name="underscore">
          -52 -289 142 hstem
          -72 1450 vstem
          13 -147 rmoveto
          -45 -40 -44 -34 -24 0 -40 77 hvcurveto
          1287 hlineto
          51 35 7 63 53 -39 19 -48 hvcurveto
          endchar
        </CharString>
        <CharString name="uni0001">
          endchar
        </CharString>
        <CharString name="uni0002">
          endchar
        </CharString>
        <CharString name="uni0003">
          endchar
        </CharString>
        <CharString name="uni0004">
          endchar
        </CharString>
        <CharString name="uni0005">
          endchar
        </CharString>
        <CharString name="uni0006">
          endchar
        </CharString>
        <CharString name="uni0007">
          endchar
        </CharString>
        <CharString name="uni0008">
          endchar
        </CharString>
        <CharString name="uni0009">
          endchar
        </CharString>
        <CharString name="uni0010">
          endchar
        </CharString>
        <CharString name="uni0011">
          endchar
        </CharString>
        <CharString name="uni0012">
          endchar
        </CharString>
        <CharString name="uni0013">
          endchar
        </CharString>
        <CharString name="uni0014">
          endchar
        </CharString>
        <CharString name="uni0015">
          endchar
        </CharString>
        <CharString name="uni0016">
          endchar
        </CharString>
        <CharString name="uni0017">
          endchar
        </CharString>
        <CharString name="uni0018">
          endchar
        </CharString>
        <CharString name="uni0019">
          endchar
        </CharString>
        <CharString name="uni00AD">
          -268 endchar
        </CharString>
        <CharString name="v">
          -55 -32 1154 hstem
          85 1142 vstem
          497 -6 rmoveto
          -11 7 35 -15 31 hhcurveto
          39 45 11 25 19 hvcurveto
          113 150 171 314 71 167 25 60 43 66 36 56 rrcurveto
          51 80 44 67 53 vvcurveto
          60 -32 45 -48 -17 -21 -10 -13 -19 vhcurveto
          -47 -43 -131 -254 -44 -87 rrcurveto
          -107 -55 -183 -423 -31 hhcurveto
          -15 -17 67 21 -10 hvcurveto
          -120 226 -73 244 -75 221 rrcurveto
          83 -30 -15 28 -84 hhcurveto
          -64 -11 -49 -37 -86 51 -65 29 -75 hvcurveto
          23 -60 19 -63 19 -60 64 -200 83 -207 124 -179 rrcurveto
          endchar
        </CharString>
        <CharString name="w">
          600 -35 198 hstem
          163 184 520 193 592 174 vstem
          554 -85 rmoveto
          164 154 176 165 64 hvcurveto
          -159 56 73 -132 149 hhcurveto
          313 299 339 408 162 -47 194 -8 34 hvcurveto
          83 -11 -53 21 -38 hhcurveto
          -72 -31 -48 -60 -48 37 -44 13 -46 hvcurveto
          29 -101 7 -129 -55 vvcurveto
          -327 -234 -185 -196 -155 -3 342 241 -4 vhcurveto
          59 0 61 -3 43 vhcurveto
          34 -3 -44 60 -48 hhcurveto
          -80 -34 -81 -33 hvcurveto
          -76 19 -161 -70 vvcurveto
          -237 -143 -261 -169 24 vhcurveto
          -190 26 -18 548 115 49 13 55 48 vvcurveto
          59 -16 34 -61 -48 -72 -34 -261 -120 25 -712 366 vhcurveto
          endchar
        </CharString>
        <CharString name="x">
          -181 -63 210 -210 1174 hstemhm
          145 958 hintmask 10100000
          145 71 rmoveto
          -75 60 -18 63 79 16 102 36 8 vhcurveto
          6 20 120 147 59 72 23 -35 22 -32 22 -31 37 -52 43 -61 26 -26 rrcurveto
          -77 72 115 -104 88 hhcurveto
          49 50 30 93 27 -5 20 -20 27 hvcurveto
          25 -22 -8 -12 -29 hhcurveto
          -82 -67 97 111 -85 hvcurveto
          -40 53 -48 73 -27 51 64 91 47 66 61 74 rrcurveto
          45 57 173 165 1 vvcurveto
          15 15 7 19 17 vvcurveto
          hintmask 01100000
          39 -32 35 -57 -142 -194 -323 -115 -86 vhcurveto
          79 -59 -155 354 -87 hhcurveto
          -55 -29 -37 -41 -79 57 -53 31 -55 hvcurveto
          68 -128 113 -205 4 vvcurveto
          -15 -28 -126 -148 -32 -47 rrcurveto
          -56 -85 -81 -29 -104 vvcurveto
          endchar
        </CharString>
        <CharString name="y">
          -4 callgsubr
          hstem
          226 225 vstem
          360 -86 rmoveto
          -90 callgsubr
        </CharString>
        <CharString name="yacute">
          -4 callgsubr
          157 466 hstemhm
          226 225 -36 447 hintmask 11010000
          486 -95 callsubr
          -126 -1350 rmoveto
          hintmask 11100000
          -90 callgsubr
        </CharString>
        <CharString name="ydieresis">
          -4 callgsubr
          159 245 hstemhm
          226 225 -221 233 hintmask 11010000
          374 -94 callgsubr
          -493 -1352 rmoveto
          hintmask 11100000
          -90 callgsubr
        </CharString>
        <CharString name="yen">
          -59 234 182 -157 176 84 180 -147 142 hstemhm
          563 219 hintmask 10011000
          336 234 rmoveto
          56 92 7 8 80 hvcurveto
          1 -52 1 -47 3 -37 rrcurveto
          -88 5 47 -30 80 hhcurveto
          40 41 36 64 43 -2 56 -3 60 hvcurveto
          -5 53 65 -7 43 hhcurveto
          101 34 9 88 hvcurveto
          hintmask 01011000
          72 -32 24 -156 -35 -38 -2 -3 -43 vhcurveto
          -3 122 rlineto
          27 hlineto
          64 59 -14 73 hhcurveto
          40 60 17 60 92 -56 9 -72 -40 -49 -8 -7 -48 hvcurveto
          144 232 124 116 104 181 rrcurveto
          2 5 13 36 10 vvcurveto
          35 -31 30 -35 -55 -26 -36 -51 -43 vhcurveto
          -111 -137 -120 -160 -125 -167 -74 66 -238 323 -46 75 rrcurveto
          36 -21 -17 9 -39 hhcurveto
          -36 -47 -44 -40 hvcurveto
          hintmask 10101000
          -134 255 -250 101 -137 vhcurveto
          -125 hlineto
          -15 -56 11 -8 hhcurveto
          -4 hlineto
          -40 -38 -60 -39 -81 131 -11 27 55 61 8 8 72 hvcurveto
          -114 vlineto
          -3 -76 -72 -2 -63 hhcurveto
          -67 -32 -48 -36 -39 7 -59 76 hvcurveto
          endchar
        </CharString>
        <CharString name="z">
          -253 -9 5 callsubr
          hstem
          55 985 vstem
          194 100 -9 callgsubr
          139 93 7 139 -13 callsubr
          46 -32 99 -56 -9 -10 -3 -5 -9 hvcurveto
          -56 -99 -122 -13 -102 hhcurveto
          -77 -80 -4 33 5 1 4 3 3 hvcurveto
          185 278 rlineto
          91 150 152 153 176 vvcurveto
          47 -19 87 -71 vhcurveto
          -88 -75 -19 -82 hhcurveto
          -419 hlineto
          -49 -18 -76 -35 -73 56 -9 52 hvcurveto
          156 145 27 147 hhcurveto
          36 18 -14 -15 -2 -1 -3 -1 -4 hvcurveto
          -72 -160 -115 -133 -14 -27 rrcurveto
          -104 -203 -164 -203 -41 vvcurveto
          endchar
        </CharString>
        <CharString name="zero">
          257 -15 169 1025 180 hstem
          173 188 884 188 vstem
          173 651 rmoveto
          -364 275 -302 361 343 281 261 392 456 -209 265 -408 -345 -298 -203 -505 vhcurveto
          188 32 rmoveto
          329 215 167 264 254 151 -196 -321 -333 -189 -175 -260 -244 -191 266 263 vhcurveto
          endchar
        </CharString>
      <CharString index="0">
        -106 callgsubr
        rrcurveto
        82 -37 -187 396 -99 hhcurveto
        -89 -55 -122 -82 -40 hvcurveto
        -254 -530 rlineto
        -77 callsubr
        -19 -36 -19 -41 -48 vvcurveto
        414 576 -98 callsubr
      </CharString>
      <CharString index="1">
        rmoveto
        -63 36 -19 57 33 30 0 41 25 vhcurveto
        9 15 11 40 12 43 80 215 rcurveline
        111 37 13 11 51 194 152 -3 153 hhcurveto
        44 24 -4 -19 21 hvcurveto
        30 -16 30 -130 30 -100 rrcurveto
        -87 24 92 -215 81 hhcurveto
        32 87 0 77 114 -62 18 -54 118 hvcurveto
        -36 80 -27 99 -37 95 rrcurveto
        83 -21 46 -61 39 vhcurveto
        -19 21 -28 75 -67 149 return
      </CharString>
      <CharString index="2">
        rmoveto
        20 25 4 11 39 hvcurveto
        164 44 -5 2 179 83 rrcurveto
        -67 139 115 -89 100 hhcurveto
        36 60 44 71 37 -49 25 -39 -90 -22 31 107 -168 hvcurveto
        19 -29 -25 9 -24 hhcurveto
        -27 -22 -10 -16 -27 hvcurveto
        -90 -56 -144 -39 -118 -30 rrcurveto
        -48 -12 -35 -41 -49 vvcurveto
        -40 44 -38 41 vhcurveto
        return
      </CharString>
      <CharString index="3">
        -19 145 -5 165 142 vvcurveto
        232 6 242 11 86 vhcurveto
        100 6 rlineto
        8 35 -21 18 hhcurveto
        56 88 34 83 28 -56 65 -43 hvcurveto
        -41 -40 -17 -45 -56 -26 -1 -19 -62 -93 -3 -55 hhcurveto
        -120 -36 -30 -74 -80 72 -3 60 hvcurveto
        77 hlineto
        -16 -219 -5 -470 -223 vvcurveto
        -86 vlineto
        3 -31 -75 8 -6 hhcurveto
        -56 -32 -54 -45 hvcurveto
        endchar
      </CharString>
      <CharString index="4">
        -89 callsubr
        -99 callgsubr
        return
      </CharString>
      <CharString index="5">
        rmoveto
        -321 331 -386 380 -47 callgsubr
        461 -253 280 -420 -48 callsubr
        vhcurveto
        182 30 rmoveto
        344 281 164 290 269 201 -210 -336 -344 -241 -186 -284 -267 -249 297 271 vhcurveto
        endchar
      </CharString>
      <CharString index="6">
        1269 -103 callgsubr
        return
      </CharString>
      <CharString index="7">
        -53 callsubr
        -78 callsubr
        vhcurveto
        -91 callgsubr
      </CharString>
      <CharString index="8">
        17 52 -55 53 -48 13 -67 18 -4 9 -114 119 rrcurveto
        23 -23 -65 57 -68 hhcurveto
        -65 -46 -27 -21 -21 hvcurveto
        -60 -60 -126 -81 -107 -62 -46 -27 -29 -14 16 -64 16 -56 57 -15 53 13 rrcurveto
        return
      </CharString>
      <CharString index="9">
        -12 76 -7 71 51 vvcurveto
        69 7 92 8 91 vhcurveto
        8 84 10 80 72 vvcurveto
        53 -21 43 -57 -58 -35 -25 callsubr
        6 vlineto
        -33 -144 -10 -165 -149 vvcurveto
        -358 vlineto
        -13 4 -32 4 -23 vhcurveto
        return
      </CharString>
      <CharString index="10">
        rmoveto
        -56 63 -55 49 76 40 122 247 125 vhcurveto
        85 171 98 192 56 99 169 293 288 431 35 63 rrcurveto
        12 21 8 20 20 vvcurveto
        30 -26 42 -51 -43 -39 -31 -8 -8 vhcurveto
        -109 -121 -303 -510 -73 -125 -88 -148 -282 -506 -64 -124 rrcurveto
        -13 -25 -5 -22 -20 vvcurveto
        return
      </CharString>
      <CharString index="11">
        -80 callgsubr
        hintmask 11101000
        -104 callgsubr
      </CharString>
      <CharString index="12">
        rmoveto
        62 20 33 17 15 -1 21 -13 19 hvcurveto
        -24 32 -52 10 -101 61 rrcurveto
        24 -39 -171 115 -60 hhcurveto
        -36 -44 -31 -45 -19 5 -24 11 -29 hvcurveto
        -35 12 299 -164 132 hhcurveto
        return
      </CharString>
      <CharString index="13">
        1266 -106 callsubr
        return
      </CharString>
      <CharString index="14">
        -43 -154 -84 -153 hhcurveto
        -143 -268 17 244 -52 hvcurveto
        669 208 -79 callsubr
        return
      </CharString>
      <CharString index="15">
        -88 callgsubr
        -61 callgsubr
        return
      </CharString>
      <CharString index="16">
        173 25 rmoveto
        244 235 132 208 188 137 -166 -240 -245 -190 -68 callgsubr
      </CharString>
      <CharString index="17">
        -75 -120 -59 -151 -67 vvcurveto
        -48 91 -59 44 53 37 65 51 84 103 232 88 152 vhcurveto
        250 457 rlineto
        285 481 45 -17 65 vvcurveto
        28 -23 40 -36 -68 -69 -41 -68 -41 vhcurveto
        -399 -691 -61 117 -156 326 -92 217 rlinecurve
        47 -21 -5 40 -55 hhcurveto
        -59 -52 -45 -64 -19 8 -31 23 -47 hvcurveto
        59 -126 199 -416 105 -186 rrcurveto
        endchar
      </CharString>
      <CharString index="18">
        -81 callgsubr
        -58 -177 -114 -24 -36 -73 callgsubr
        return
      </CharString>
      <CharString index="19">
        -115 36 87 -70 117 hhcurveto
        116 81 83 64 52 -25 21 -48 -24 -11 -13 -15 -15 hvcurveto
        -7 -5 -32 -21 -17 hhcurveto
        return
      </CharString>
      <CharString index="20">
        -14 73 -9 79 35 vvcurveto
        256 vlineto
        149 91 193 98 115 hhcurveto
        168 52 -85 -85 53 hvcurveto
        66 -103 9 -126 -125 -111 -51 -122 -105 vvcurveto
        -112 46 -7 59 80 46 164 172 vhcurveto
        170 vlineto
        280 -101 369 -391 -143 -210 -88 -136 -93 vhcurveto
        103 -2 113 -84 -76 -11 -154 -94 vhcurveto
        return
      </CharString>
      <CharString index="21">
        -8 112 -8 81 109 vvcurveto
        293 137 121 302 96 20 -26 -19 17 vhcurveto
        -24 19 20 -23 43 hhcurveto
        56 37 37 55 154 -200 19 -112 -133 -156 -33 -83 -110 hvcurveto
        37 -8 -28 45 -59 hhcurveto
        -71 -22 -41 -64 -5 hvcurveto
        -33 -395 -5 -59 0 -83 7 -71 rlinecurve
        4 -44 2 -42 -41 -35 -6 -38 -35 vvcurveto
        return
      </CharString>
      <CharString index="22">
        -79 callgsubr
        -74 callgsubr
        return
      </CharString>
      <CharString index="23">
        -94 -33 126 -107 hhcurveto
        -120 -187 -36 -177 -47 22 -20 43 hvcurveto
        return
      </CharString>
      <CharString index="24">
        -19 -32 -26 -33 -47 vvcurveto
        -166 -157 -189 -225 -169 -198 115 166 vhcurveto
        endchar
      </CharString>
      <CharString index="25">
        292 36 262 87 -61 callsubr
        -147 -68 -384 -110 -187 -56 rrcurveto
        return
      </CharString>
      <CharString index="26">
        1520 -81 callsubr
        return
      </CharString>
      <CharString index="27">
        rmoveto
        -73 125 -19 47 vhcurveto
        342 hlineto
        49 59 33 49 35 -18 34 -41 27 hvcurveto
        -9 6 -68 -13 -80 8 rrcurveto
        return
      </CharString>
      <CharString index="28">
        rmoveto
        -51 46 -58 54 66 56 37 54 7 -1 4 -1 7 vhcurveto
        -29 131 -30 179 136 vvcurveto
        43 51 157 27 40 hhcurveto
        162 206 -30 -162 69 hvcurveto
        return
      </CharString>
      <CharString index="29">
        -59 callgsubr
        hintmask 11101000
        -100 callsubr
      </CharString>
      <CharString index="30">
        -59 callgsubr
        -100 callsubr
      </CharString>
      <CharString index="31">
        -55 callsubr
        hintmask 11100000
        -88 callsubr
      </CharString>
      <CharString index="32">
        rmoveto
        -45 22 -6 25 vhcurveto
        17 22 3 8 48 44 -13 45 135 136 21 133 114 28 -30 77 hhcurveto
        52 59 58 48 52 -43 52 -53 hvcurveto
        -56 -49 -15 -51 hhcurveto
        -242 -181 9 3 -70 hvcurveto
        -27 2 -1 23 hvcurveto
        return
      </CharString>
      <CharString index="33">
        27 -67 10 -106 -81 -53 -9 -40 -41 vvcurveto
        -80 8 -66 80 36 69 41 58 248 -7 206 -99 158 vhcurveto
        -50 76 -174 68 -114 3 rrcurveto
        return
      </CharString>
      <CharString index="34">
        vhcurveto
        -70 -43 -119 -7 -108 vvcurveto
        -17 20 -37 64 vhcurveto
        return
      </CharString>
      <CharString index="35">
        rmoveto
        -252 277 -200 238 209 129 89 105 100 vhcurveto
        return
      </CharString>
      <CharString index="36">
        -73 callsubr
        -124 -39 -107 -116 8 vhcurveto
        endchar
      </CharString>
      <CharString index="37">
        83 42 40 80 92 -77 22 -64 -61 -78 -65 -60 return
      </CharString>
      <CharString index="38">
        -9 callgsubr
        96 71 7 94 -13 callsubr
        37 -32 83 -56 -9 -10 -4 -4 -9 hvcurveto
        -41 -83 -91 -3 -83 hhcurveto
        -59 -49 1 28 5 1 4 3 3 hvcurveto
        169 278 rlineto
        102 168 74 109 97 vvcurveto
        132 -119 88 -220 -192 -153 -75 -126 -73 30 -18 52 vhcurveto
        return
      </CharString>
      <CharString index="39">
        -143 -204 -188 -186 221 197 vhcurveto
        endchar
      </CharString>
      <CharString index="40">
        hvcurveto
        10 29 5 23 19 vvcurveto
        45 -42 31 -38 return
      </CharString>
      <CharString index="41">
        rmoveto
        -72 callsubr
        -29 9 49 -8 hvcurveto
        return
      </CharString>
      <CharString index="42">
        180 -26 173 -164 164 776 174 return
      </CharString>
      <CharString index="43">
        200 59 -75 callgsubr
        -5 313 -21 283 285 vvcurveto
        return
      </CharString>
      <CharString index="44">
        -72 15 36 -25 80 hhcurveto
        -57 callsubr
        return
      </CharString>
      <CharString index="45">
        3 callgsubr
        288 376 hvcurveto
        125 -8 131 128 vvcurveto
        -4 97 23 344 -4 58 -43 callsubr
        -85 -2 -60 -104 -81 7 -115 -145 vvcurveto
        -222 -19 -159 -3 -48 vhcurveto
        return
      </CharString>
      <CharString index="46">
        -61 -39 37 124 72 10 50 8 51 hvcurveto
        return
      </CharString>
      <CharString index="47">
        -131 -148 -185 -90 -135 hvcurveto
        -45 5 -52 99 -26 26 -58 56 -38 44 -62 16 rrcurveto
        1 -7 -5 1 -5 hhcurveto
        -57 -61 -64 -44 -45 50 -33 39 -21 hvcurveto
        108 -60 -62 54 118 -118 rrcurveto
        -23 23 65 -57 68 hhcurveto
        return
      </CharString>
      <CharString index="48">
        rmoveto
        183 122 73 98 95 hvcurveto
        -20 10 20 -52 29 hhcurveto
        return
      </CharString>
      <CharString index="49">
        rmoveto
        -63 callgsubr
        137 24 210 141 vvcurveto
        52 -12 44 -59 -52 callsubr
        return
      </CharString>
      <CharString index="50">
        -46 callgsubr
        hintmask 10100000
        -91 callsubr
        hintmask 01100000
        -84 callgsubr
        endchar
      </CharString>
      <CharString index="51">
        104 449 10 134 68 -31 31 -71 return
      </CharString>
      <CharString index="52">
        -59 -32 29 71 36 30 61 24 33 75 -26 -31 -43 -34 -97 -37 hvcurveto
        return
      </CharString>
      <CharString index="53">
        24 43 rrcurveto
        18 34 0 14 47 vvcurveto
        60 -53 57 -76 return
      </CharString>
      <CharString index="54">
        -81 callgsubr
        -59 -173 -115 -23 -39 -73 callgsubr
        return
      </CharString>
      <CharString index="55">
        vvcurveto
        108 -3 82 21 96 vhcurveto
        15 23 146 2 53 hhcurveto
        296 350 -263 -332 -272 -367 -161 -234 hvcurveto
        -161 hlineto
        -43 -42 8 9 -9 hvcurveto
        endchar
      </CharString>
      <CharString index="56">
        -33 -26 212 451 168 334 169 return
      </CharString>
      <CharString index="57">
        -33 callgsubr
        -150 -177 -129 -160 -20 -47 3 14 -20 vhcurveto
        25 -33 -24 53 -47 hhcurveto
        -68 -38 -66 -44 hvcurveto
        endchar
      </CharString>
      <CharString index="58">
        69 13 -5 23 -7 21 hvcurveto
        -3 12 -4 13 -5 13 -61 141 -42 47 -56 120 return
      </CharString>
      <CharString index="59">
        188 115 213 160 208 -248 25 -79 -172 -106 -204 -102 return
      </CharString>
      <CharString index="60">
        357 334 275 400 return
      </CharString>
      <CharString index="61">
        rmoveto
        68 18 100 91 hhcurveto
        return
      </CharString>
      <CharString index="62">
        rmoveto
        -70 callgsubr
        -88 100 -21 55 hvcurveto
        endchar
      </CharString>
      <CharString index="63">
        hhcurveto
        -244 -29 344 131 hvcurveto
        return
      </CharString>
      <CharString index="64">
        181 -54 180 hstemhm
        return
      </CharString>
      <CharString index="65">
        32 -26 165 794 166 return
      </CharString>
      <CharString index="66">
        193 99 109 125 69 return
      </CharString>
      <CharString index="67">
        1240 rmoveto
        65 44 27 21 23 hvcurveto
        62 59 150 103 109 61 rrcurveto
        37 21 27 13 39 vvcurveto
        66 -46 28 -50 vhcurveto
        return
      </CharString>
      <CharString index="68">
        68 rmoveto
        -29 34 -74 76 69 33 59 47 vhcurveto
        -5 284 74 24 return
      </CharString>
      <CharString index="69">
        -184 101 -116 201 -48 callgsubr
        vhcurveto
        return
      </CharString>
      <CharString index="70">
        3 218 -24 139 -243 139 rlinecurve
        50 -90 -121 23 -103 hhcurveto
        -127 -116 -47 -88 -85 hvcurveto
        75 vlineto
        return
      </CharString>
      <CharString index="71">
        rmoveto
        -84 12 -72 104 72 22 63 75 64 -11 58 -8 41 vhcurveto
        return
      </CharString>
      <CharString index="72">
        3 -27 3 -27 -5 vvcurveto
        endchar
      </CharString>
      <CharString index="73">
        vstem
        372 1312 rmoveto
        53 24 61 18 72 -115 89 -51 -59 -38 -57 -45 -93 140 -45 46 hvcurveto
        return
      </CharString>
      <CharString index="74">
        -117 15 -111 -115 -273 -9 -148 -27 vvcurveto
        return
      </CharString>
      <CharString index="75">
        233 480 182 return
      </CharString>
      <CharString index="76">
        177 -127 164 return
      </CharString>
      <CharString index="77">
        -242 24 -222 -182 -56 -2 -33 -20 vvcurveto
        endchar
      </CharString>
      <CharString index="78">
        -3 -42 -8 -91 -50 callsubr
        -2 8 -79 rrcurveto
        return
      </CharString>
      <CharString index="79">
        1548 -46 callgsubr
        return
      </CharString>
      <CharString index="80">
        13 21 14 23 36 vvcurveto
        52 -43 49 -51 3 vhcurveto
        -1 -6 -1 -23 -39 hvcurveto
        -43 -23 -222 return
      </CharString>
      <CharString index="81">
        -95 -9 31 -168 vvcurveto
        -3 -9 -8 -17 -45 vvcurveto
        return
      </CharString>
      <CharString index="82">
        184 -170 213 return
      </CharString>
      <CharString index="83">
        64 54 97 45 49 117 -41 -60 -68 -58 -136 -60 -96 -51 48 96 vhcurveto
        endchar
      </CharString>
      <CharString index="84">
        rmoveto
        58 38 19 69 47 -94 113 -48 -76 -41 -53 -54 -29 107 -112 56 hvcurveto
        return
      </CharString>
      <CharString index="85">
        hstemhm
        133 187 return
      </CharString>
      <CharString index="86">
        rmoveto
        51 46 38 91 95 -64 52 -20 -59 -106 -55 -64 -120 55 -37 97 hvcurveto
        return
      </CharString>
      <CharString index="87">
        -253 33 -244 -234 -26 callgsubr
        return
      </CharString>
      <CharString index="88">
        -9 callsubr
        hstem
        162 -8 callgsubr
        vstem
        396 return
      </CharString>
      <CharString index="89">
        vlineto
        37 -33 48 -51 -69 -23 -60 -88 vhcurveto
        return
      </CharString>
      <CharString index="90">
        hstemhm
        -22 callsubr
        return
      </CharString>
      <CharString index="91">
        125 202 315 76 50 2 64 -62 -100 -30 -129 -62 -52 return
      </CharString>
      <CharString index="92">
        -97 8 125 0 53 hhcurveto
        return
      </CharString>
      <CharString index="93">
        rmoveto
        452 263 31 320 133 -118 92 -90 37 hvcurveto
        return
      </CharString>
      <CharString index="94">
        85 4 52 62 44 -19 51 -11 56 return
      </CharString>
      <CharString index="95">
        -27 149 -2 146 145 vvcurveto
        return
      </CharString>
      <CharString index="96">
        685 rmoveto
        -287 153 -424 563 357 337 return
      </CharString>
      <CharString index="97">
        -43 callgsubr
        208 799 hintmask 01100000
        273 return
      </CharString>
      <CharString index="98">
        rmoveto
        -109 127 0 101 vhcurveto
        return
      </CharString>
      <CharString index="99">
        165 162 141 return
      </CharString>
      <CharString index="100">
        42 -12 44 hhcurveto
        40 60 18 68 104 -85 0 -72 hvcurveto
        return
      </CharString>
      <CharString index="101">
        3 47 3 40 5 34 rrcurveto
        65 0 32 -52 vhcurveto
        return
      </CharString>
      <CharString index="102">
        -186 -111 1492 return
      </CharString>
      <CharString index="103">
        -137 -531 1638 return
      </CharString>
      <CharString index="104">
        vvcurveto
        -50 73 -22 37 -3 vhcurveto
        return
      </CharString>
      <CharString index="105">
        -298 -336 -200 271 336 vhcurveto
        return
      </CharString>
      <CharString index="106">
        216 -78 hhcurveto
        -41 -61 -7 -83 hvcurveto
        -142 return
      </CharString>
      <CharString index="107">
        61 -60 78 -67 -79 -43 -62 -77 vhcurveto
        endchar
      </CharString>
      <CharString index="108">
        182 -11 184 return
      </CharString>
      <CharString index="109">
        173 vstem
        return
      </CharString>
      <CharString index="110">
        -15 callgsubr
        493 77 return
      </CharString>
      <CharString index="111">
        -13 -28 -4 -14 -27 vvcurveto
        -47 26 -23 45 return
      </CharString>
      <CharString index="112">
        186 -153 149 return
      </CharString>
      <CharString index="113">
        -13 -43 172 return
      </CharString>
      <CharString index="114">
        175 186 return
      </CharString>
      <CharString index="115">
        179 vstem
        return
      </CharString>
      <CharString index="116">
        hhcurveto
        115 23 34 75 5 hvcurveto
        4 return
      </CharString>
      <CharString index="117">
        376 104 rmoveto
        -88 30 -26 108 return
      </CharString>
      <CharString index="118">
        -430 -215 1887 hstem
        return
      </CharString>
      <CharString index="119">
        177 hstem
        135 957 vstem
        return
      </CharString>
      <CharString index="120">
        1638 hstem
        215 174 return
      </CharString>
      <CharString index="121">
        79 927 174 return
      </CharString>
      <CharString index="122">
        hstem
        268 22 return
      </CharString>
</ttFont>
